G04 #@! TF.GenerationSoftware,KiCad,Pcbnew,(5.1.4)-1*
G04 #@! TF.CreationDate,2020-11-18T17:54:53+09:00*
G04 #@! TF.ProjectId,CurrentIndicator,43757272-656e-4744-996e-64696361746f,rev?*
G04 #@! TF.SameCoordinates,Original*
G04 #@! TF.FileFunction,Legend,Top*
G04 #@! TF.FilePolarity,Positive*
%FSLAX46Y46*%
G04 Gerber Fmt 4.6, Leading zero omitted, Abs format (unit mm)*
G04 Created by KiCad (PCBNEW (5.1.4)-1) date 2020-11-18 17:54:53*
%MOMM*%
%LPD*%
G04 APERTURE LIST*
%ADD10C,0.200000*%
%ADD11C,0.150000*%
%ADD12C,1.000000*%
%ADD13C,0.300000*%
%ADD14C,0.120000*%
G04 APERTURE END LIST*
D10*
X178203571Y-139278571D02*
X178146428Y-139335714D01*
X177975000Y-139392857D01*
X177860714Y-139392857D01*
X177689285Y-139335714D01*
X177575000Y-139221428D01*
X177517857Y-139107142D01*
X177460714Y-138878571D01*
X177460714Y-138707142D01*
X177517857Y-138478571D01*
X177575000Y-138364285D01*
X177689285Y-138250000D01*
X177860714Y-138192857D01*
X177975000Y-138192857D01*
X178146428Y-138250000D01*
X178203571Y-138307142D01*
X179232142Y-138592857D02*
X179232142Y-139392857D01*
X178717857Y-138592857D02*
X178717857Y-139221428D01*
X178775000Y-139335714D01*
X178889285Y-139392857D01*
X179060714Y-139392857D01*
X179175000Y-139335714D01*
X179232142Y-139278571D01*
X179803571Y-139392857D02*
X179803571Y-138592857D01*
X179803571Y-138821428D02*
X179860714Y-138707142D01*
X179917857Y-138650000D01*
X180032142Y-138592857D01*
X180146428Y-138592857D01*
X180546428Y-139392857D02*
X180546428Y-138592857D01*
X180546428Y-138821428D02*
X180603571Y-138707142D01*
X180660714Y-138650000D01*
X180775000Y-138592857D01*
X180889285Y-138592857D01*
X181746428Y-139335714D02*
X181632142Y-139392857D01*
X181403571Y-139392857D01*
X181289285Y-139335714D01*
X181232142Y-139221428D01*
X181232142Y-138764285D01*
X181289285Y-138650000D01*
X181403571Y-138592857D01*
X181632142Y-138592857D01*
X181746428Y-138650000D01*
X181803571Y-138764285D01*
X181803571Y-138878571D01*
X181232142Y-138992857D01*
X182317857Y-138592857D02*
X182317857Y-139392857D01*
X182317857Y-138707142D02*
X182375000Y-138650000D01*
X182489285Y-138592857D01*
X182660714Y-138592857D01*
X182775000Y-138650000D01*
X182832142Y-138764285D01*
X182832142Y-139392857D01*
X183232142Y-138592857D02*
X183689285Y-138592857D01*
X183403571Y-138192857D02*
X183403571Y-139221428D01*
X183460714Y-139335714D01*
X183575000Y-139392857D01*
X183689285Y-139392857D01*
X185003571Y-139392857D02*
X185003571Y-138192857D01*
X185575000Y-138592857D02*
X185575000Y-139392857D01*
X185575000Y-138707142D02*
X185632142Y-138650000D01*
X185746428Y-138592857D01*
X185917857Y-138592857D01*
X186032142Y-138650000D01*
X186089285Y-138764285D01*
X186089285Y-139392857D01*
X187175000Y-139392857D02*
X187175000Y-138192857D01*
X187175000Y-139335714D02*
X187060714Y-139392857D01*
X186832142Y-139392857D01*
X186717857Y-139335714D01*
X186660714Y-139278571D01*
X186603571Y-139164285D01*
X186603571Y-138821428D01*
X186660714Y-138707142D01*
X186717857Y-138650000D01*
X186832142Y-138592857D01*
X187060714Y-138592857D01*
X187175000Y-138650000D01*
X187746428Y-139392857D02*
X187746428Y-138592857D01*
X187746428Y-138192857D02*
X187689285Y-138250000D01*
X187746428Y-138307142D01*
X187803571Y-138250000D01*
X187746428Y-138192857D01*
X187746428Y-138307142D01*
X188832142Y-139335714D02*
X188717857Y-139392857D01*
X188489285Y-139392857D01*
X188375000Y-139335714D01*
X188317857Y-139278571D01*
X188260714Y-139164285D01*
X188260714Y-138821428D01*
X188317857Y-138707142D01*
X188375000Y-138650000D01*
X188489285Y-138592857D01*
X188717857Y-138592857D01*
X188832142Y-138650000D01*
X189860714Y-139392857D02*
X189860714Y-138764285D01*
X189803571Y-138650000D01*
X189689285Y-138592857D01*
X189460714Y-138592857D01*
X189346428Y-138650000D01*
X189860714Y-139335714D02*
X189746428Y-139392857D01*
X189460714Y-139392857D01*
X189346428Y-139335714D01*
X189289285Y-139221428D01*
X189289285Y-139107142D01*
X189346428Y-138992857D01*
X189460714Y-138935714D01*
X189746428Y-138935714D01*
X189860714Y-138878571D01*
X190260714Y-138592857D02*
X190717857Y-138592857D01*
X190432142Y-138192857D02*
X190432142Y-139221428D01*
X190489285Y-139335714D01*
X190603571Y-139392857D01*
X190717857Y-139392857D01*
X191289285Y-139392857D02*
X191175000Y-139335714D01*
X191117857Y-139278571D01*
X191060714Y-139164285D01*
X191060714Y-138821428D01*
X191117857Y-138707142D01*
X191175000Y-138650000D01*
X191289285Y-138592857D01*
X191460714Y-138592857D01*
X191575000Y-138650000D01*
X191632142Y-138707142D01*
X191689285Y-138821428D01*
X191689285Y-139164285D01*
X191632142Y-139278571D01*
X191575000Y-139335714D01*
X191460714Y-139392857D01*
X191289285Y-139392857D01*
X192203571Y-139392857D02*
X192203571Y-138592857D01*
X192203571Y-138821428D02*
X192260714Y-138707142D01*
X192317857Y-138650000D01*
X192432142Y-138592857D01*
X192546428Y-138592857D01*
X193746428Y-138592857D02*
X194032142Y-139392857D01*
X194317857Y-138592857D01*
X195232142Y-139335714D02*
X195117857Y-139392857D01*
X194889285Y-139392857D01*
X194775000Y-139335714D01*
X194717857Y-139221428D01*
X194717857Y-138764285D01*
X194775000Y-138650000D01*
X194889285Y-138592857D01*
X195117857Y-138592857D01*
X195232142Y-138650000D01*
X195289285Y-138764285D01*
X195289285Y-138878571D01*
X194717857Y-138992857D01*
X195803571Y-139392857D02*
X195803571Y-138592857D01*
X195803571Y-138821428D02*
X195860714Y-138707142D01*
X195917857Y-138650000D01*
X196032142Y-138592857D01*
X196146428Y-138592857D01*
X197175000Y-139392857D02*
X196489285Y-139392857D01*
X196832142Y-139392857D02*
X196832142Y-138192857D01*
X196717857Y-138364285D01*
X196603571Y-138478571D01*
X196489285Y-138535714D01*
X197689285Y-139278571D02*
X197746428Y-139335714D01*
X197689285Y-139392857D01*
X197632142Y-139335714D01*
X197689285Y-139278571D01*
X197689285Y-139392857D01*
X198489285Y-138192857D02*
X198603571Y-138192857D01*
X198717857Y-138250000D01*
X198775000Y-138307142D01*
X198832142Y-138421428D01*
X198889285Y-138650000D01*
X198889285Y-138935714D01*
X198832142Y-139164285D01*
X198775000Y-139278571D01*
X198717857Y-139335714D01*
X198603571Y-139392857D01*
X198489285Y-139392857D01*
X198375000Y-139335714D01*
X198317857Y-139278571D01*
X198260714Y-139164285D01*
X198203571Y-138935714D01*
X198203571Y-138650000D01*
X198260714Y-138421428D01*
X198317857Y-138307142D01*
X198375000Y-138250000D01*
X198489285Y-138192857D01*
D11*
X193648809Y-133353571D02*
X193648809Y-131853571D01*
X193648809Y-132425000D02*
X193725000Y-132353571D01*
X193877380Y-132353571D01*
X193953571Y-132425000D01*
X193991666Y-132496428D01*
X194029761Y-132639285D01*
X194029761Y-133067857D01*
X193991666Y-133210714D01*
X193953571Y-133282142D01*
X193877380Y-133353571D01*
X193725000Y-133353571D01*
X193648809Y-133282142D01*
X194296428Y-132353571D02*
X194486904Y-133353571D01*
X194677380Y-132353571D02*
X194486904Y-133353571D01*
X194410714Y-133710714D01*
X194372619Y-133782142D01*
X194296428Y-133853571D01*
X188204761Y-133353571D02*
X188204761Y-131853571D01*
X188395238Y-131853571D01*
X188509523Y-131925000D01*
X188585714Y-132067857D01*
X188623809Y-132210714D01*
X188661904Y-132496428D01*
X188661904Y-132710714D01*
X188623809Y-132996428D01*
X188585714Y-133139285D01*
X188509523Y-133282142D01*
X188395238Y-133353571D01*
X188204761Y-133353571D01*
X189309523Y-133282142D02*
X189233333Y-133353571D01*
X189080952Y-133353571D01*
X189004761Y-133282142D01*
X188966666Y-133139285D01*
X188966666Y-132567857D01*
X189004761Y-132425000D01*
X189080952Y-132353571D01*
X189233333Y-132353571D01*
X189309523Y-132425000D01*
X189347619Y-132567857D01*
X189347619Y-132710714D01*
X188966666Y-132853571D01*
X189652380Y-133282142D02*
X189728571Y-133353571D01*
X189880952Y-133353571D01*
X189957142Y-133282142D01*
X189995238Y-133139285D01*
X189995238Y-133067857D01*
X189957142Y-132925000D01*
X189880952Y-132853571D01*
X189766666Y-132853571D01*
X189690476Y-132782142D01*
X189652380Y-132639285D01*
X189652380Y-132567857D01*
X189690476Y-132425000D01*
X189766666Y-132353571D01*
X189880952Y-132353571D01*
X189957142Y-132425000D01*
X190338095Y-133353571D02*
X190338095Y-132353571D01*
X190338095Y-131853571D02*
X190300000Y-131925000D01*
X190338095Y-131996428D01*
X190376190Y-131925000D01*
X190338095Y-131853571D01*
X190338095Y-131996428D01*
X191061904Y-132353571D02*
X191061904Y-133567857D01*
X191023809Y-133710714D01*
X190985714Y-133782142D01*
X190909523Y-133853571D01*
X190795238Y-133853571D01*
X190719047Y-133782142D01*
X191061904Y-133282142D02*
X190985714Y-133353571D01*
X190833333Y-133353571D01*
X190757142Y-133282142D01*
X190719047Y-133210714D01*
X190680952Y-133067857D01*
X190680952Y-132639285D01*
X190719047Y-132496428D01*
X190757142Y-132425000D01*
X190833333Y-132353571D01*
X190985714Y-132353571D01*
X191061904Y-132425000D01*
X191442857Y-132353571D02*
X191442857Y-133353571D01*
X191442857Y-132496428D02*
X191480952Y-132425000D01*
X191557142Y-132353571D01*
X191671428Y-132353571D01*
X191747619Y-132425000D01*
X191785714Y-132567857D01*
X191785714Y-133353571D01*
X192471428Y-133282142D02*
X192395238Y-133353571D01*
X192242857Y-133353571D01*
X192166666Y-133282142D01*
X192128571Y-133139285D01*
X192128571Y-132567857D01*
X192166666Y-132425000D01*
X192242857Y-132353571D01*
X192395238Y-132353571D01*
X192471428Y-132425000D01*
X192509523Y-132567857D01*
X192509523Y-132710714D01*
X192128571Y-132853571D01*
X193195238Y-133353571D02*
X193195238Y-131853571D01*
X193195238Y-133282142D02*
X193119047Y-133353571D01*
X192966666Y-133353571D01*
X192890476Y-133282142D01*
X192852380Y-133210714D01*
X192814285Y-133067857D01*
X192814285Y-132639285D01*
X192852380Y-132496428D01*
X192890476Y-132425000D01*
X192966666Y-132353571D01*
X193119047Y-132353571D01*
X193195238Y-132425000D01*
D10*
X161808333Y-94504761D02*
X161808333Y-94809523D01*
X161846428Y-94847619D02*
X161998809Y-94961904D01*
X161846428Y-94466666D02*
X161998809Y-94352380D01*
X161846428Y-94428571D02*
X161846428Y-94885714D01*
X161884523Y-94885714D02*
X161884523Y-94428571D01*
X161922619Y-94390476D02*
X161922619Y-94923809D01*
X161960714Y-94923809D02*
X161960714Y-94390476D01*
X161998809Y-94352380D02*
X161998809Y-94961904D01*
X162036904Y-94961904D02*
X162036904Y-94352380D01*
X162075000Y-94352380D02*
X162075000Y-94961904D01*
X162113095Y-94961904D02*
X162113095Y-94352380D01*
X162151190Y-94961904D02*
X162303571Y-94847619D01*
X162151190Y-94352380D02*
X162151190Y-94961904D01*
X162151190Y-94352380D02*
X162303571Y-94466666D01*
X162189285Y-94923809D02*
X162189285Y-94390476D01*
X162227380Y-94390476D02*
X162227380Y-94923809D01*
X162265476Y-94885714D02*
X162265476Y-94428571D01*
X162303571Y-94428571D02*
X162303571Y-94885714D01*
X162341666Y-94809523D02*
X162341666Y-94504761D01*
X161998809Y-94352380D02*
X162151190Y-94352380D01*
X162303571Y-94428571D01*
X162379761Y-94580952D01*
X162379761Y-94733333D01*
X162303571Y-94885714D01*
X162151190Y-94961904D01*
X161998809Y-94961904D01*
X161846428Y-94885714D01*
X161770238Y-94733333D01*
X161770238Y-94580952D01*
X161846428Y-94428571D01*
X161998809Y-94352380D01*
X175933333Y-112204761D02*
X175933333Y-112509523D01*
X175971428Y-112547619D02*
X176123809Y-112661904D01*
X175971428Y-112166666D02*
X176123809Y-112052380D01*
X175971428Y-112128571D02*
X175971428Y-112585714D01*
X176009523Y-112585714D02*
X176009523Y-112128571D01*
X176047619Y-112090476D02*
X176047619Y-112623809D01*
X176085714Y-112623809D02*
X176085714Y-112090476D01*
X176123809Y-112052380D02*
X176123809Y-112661904D01*
X176161904Y-112661904D02*
X176161904Y-112052380D01*
X176200000Y-112052380D02*
X176200000Y-112661904D01*
X176238095Y-112661904D02*
X176238095Y-112052380D01*
X176276190Y-112661904D02*
X176428571Y-112547619D01*
X176276190Y-112052380D02*
X176276190Y-112661904D01*
X176276190Y-112052380D02*
X176428571Y-112166666D01*
X176314285Y-112623809D02*
X176314285Y-112090476D01*
X176352380Y-112090476D02*
X176352380Y-112623809D01*
X176390476Y-112585714D02*
X176390476Y-112128571D01*
X176428571Y-112128571D02*
X176428571Y-112585714D01*
X176466666Y-112509523D02*
X176466666Y-112204761D01*
X176123809Y-112052380D02*
X176276190Y-112052380D01*
X176428571Y-112128571D01*
X176504761Y-112280952D01*
X176504761Y-112433333D01*
X176428571Y-112585714D01*
X176276190Y-112661904D01*
X176123809Y-112661904D01*
X175971428Y-112585714D01*
X175895238Y-112433333D01*
X175895238Y-112280952D01*
X175971428Y-112128571D01*
X176123809Y-112052380D01*
X166108333Y-135904761D02*
X166108333Y-136209523D01*
X166146428Y-136247619D02*
X166298809Y-136361904D01*
X166146428Y-135866666D02*
X166298809Y-135752380D01*
X166146428Y-135828571D02*
X166146428Y-136285714D01*
X166184523Y-136285714D02*
X166184523Y-135828571D01*
X166222619Y-135790476D02*
X166222619Y-136323809D01*
X166260714Y-136323809D02*
X166260714Y-135790476D01*
X166298809Y-135752380D02*
X166298809Y-136361904D01*
X166336904Y-136361904D02*
X166336904Y-135752380D01*
X166375000Y-135752380D02*
X166375000Y-136361904D01*
X166413095Y-136361904D02*
X166413095Y-135752380D01*
X166451190Y-136361904D02*
X166603571Y-136247619D01*
X166451190Y-135752380D02*
X166451190Y-136361904D01*
X166451190Y-135752380D02*
X166603571Y-135866666D01*
X166489285Y-136323809D02*
X166489285Y-135790476D01*
X166527380Y-135790476D02*
X166527380Y-136323809D01*
X166565476Y-136285714D02*
X166565476Y-135828571D01*
X166603571Y-135828571D02*
X166603571Y-136285714D01*
X166641666Y-136209523D02*
X166641666Y-135904761D01*
X166298809Y-135752380D02*
X166451190Y-135752380D01*
X166603571Y-135828571D01*
X166679761Y-135980952D01*
X166679761Y-136133333D01*
X166603571Y-136285714D01*
X166451190Y-136361904D01*
X166298809Y-136361904D01*
X166146428Y-136285714D01*
X166070238Y-136133333D01*
X166070238Y-135980952D01*
X166146428Y-135828571D01*
X166298809Y-135752380D01*
D11*
X197714285Y-133353571D02*
X197214285Y-132639285D01*
X196857142Y-133353571D02*
X196857142Y-131853571D01*
X197428571Y-131853571D01*
X197571428Y-131925000D01*
X197642857Y-131996428D01*
X197714285Y-132139285D01*
X197714285Y-132353571D01*
X197642857Y-132496428D01*
X197571428Y-132567857D01*
X197428571Y-132639285D01*
X196857142Y-132639285D01*
X196175000Y-133353571D02*
X196175000Y-131853571D01*
X196675000Y-132925000D01*
X197175000Y-131853571D01*
X197175000Y-133353571D01*
X195621428Y-133353571D02*
X195621428Y-131853571D01*
X196478571Y-133353571D01*
X196478571Y-131853571D01*
X195071428Y-133353571D02*
X195071428Y-131853571D01*
X195928571Y-133353571D01*
X195928571Y-131853571D01*
D12*
X155695238Y-53357142D02*
X159504761Y-53357142D01*
X180520238Y-53357142D02*
X184329761Y-53357142D01*
X182425000Y-55261904D02*
X182425000Y-51452380D01*
D11*
X142832142Y-71452380D02*
X142498809Y-70976190D01*
X142260714Y-71452380D02*
X142260714Y-70452380D01*
X142641666Y-70452380D01*
X142736904Y-70500000D01*
X142784523Y-70547619D01*
X142832142Y-70642857D01*
X142832142Y-70785714D01*
X142784523Y-70880952D01*
X142736904Y-70928571D01*
X142641666Y-70976190D01*
X142260714Y-70976190D01*
X143260714Y-70928571D02*
X143594047Y-70928571D01*
X143736904Y-71452380D02*
X143260714Y-71452380D01*
X143260714Y-70452380D01*
X143736904Y-70452380D01*
X144736904Y-71357142D02*
X144689285Y-71404761D01*
X144546428Y-71452380D01*
X144451190Y-71452380D01*
X144308333Y-71404761D01*
X144213095Y-71309523D01*
X144165476Y-71214285D01*
X144117857Y-71023809D01*
X144117857Y-70880952D01*
X144165476Y-70690476D01*
X144213095Y-70595238D01*
X144308333Y-70500000D01*
X144451190Y-70452380D01*
X144546428Y-70452380D01*
X144689285Y-70500000D01*
X144736904Y-70547619D01*
X142266666Y-74202380D02*
X142266666Y-73202380D01*
X142647619Y-73202380D01*
X142742857Y-73250000D01*
X142790476Y-73297619D01*
X142838095Y-73392857D01*
X142838095Y-73535714D01*
X142790476Y-73630952D01*
X142742857Y-73678571D01*
X142647619Y-73726190D01*
X142266666Y-73726190D01*
X143171428Y-73202380D02*
X143409523Y-74202380D01*
X143600000Y-73488095D01*
X143790476Y-74202380D01*
X144028571Y-73202380D01*
X144980952Y-74202380D02*
X144647619Y-73726190D01*
X144409523Y-74202380D02*
X144409523Y-73202380D01*
X144790476Y-73202380D01*
X144885714Y-73250000D01*
X144933333Y-73297619D01*
X144980952Y-73392857D01*
X144980952Y-73535714D01*
X144933333Y-73630952D01*
X144885714Y-73678571D01*
X144790476Y-73726190D01*
X144409523Y-73726190D01*
D13*
X141810714Y-122953571D02*
X142810714Y-122953571D01*
X141810714Y-124453571D01*
X142810714Y-124453571D01*
X143382142Y-123667857D02*
X143882142Y-123667857D01*
X144096428Y-124453571D02*
X143382142Y-124453571D01*
X143382142Y-122953571D01*
X144096428Y-122953571D01*
X145596428Y-124453571D02*
X145096428Y-123739285D01*
X144739285Y-124453571D02*
X144739285Y-122953571D01*
X145310714Y-122953571D01*
X145453571Y-123025000D01*
X145525000Y-123096428D01*
X145596428Y-123239285D01*
X145596428Y-123453571D01*
X145525000Y-123596428D01*
X145453571Y-123667857D01*
X145310714Y-123739285D01*
X144739285Y-123739285D01*
X146525000Y-122953571D02*
X146810714Y-122953571D01*
X146953571Y-123025000D01*
X147096428Y-123167857D01*
X147167857Y-123453571D01*
X147167857Y-123953571D01*
X147096428Y-124239285D01*
X146953571Y-124382142D01*
X146810714Y-124453571D01*
X146525000Y-124453571D01*
X146382142Y-124382142D01*
X146239285Y-124239285D01*
X146167857Y-123953571D01*
X146167857Y-123453571D01*
X146239285Y-123167857D01*
X146382142Y-123025000D01*
X146525000Y-122953571D01*
X143535714Y-113628571D02*
X143035714Y-112914285D01*
X142678571Y-113628571D02*
X142678571Y-112128571D01*
X143250000Y-112128571D01*
X143392857Y-112200000D01*
X143464285Y-112271428D01*
X143535714Y-112414285D01*
X143535714Y-112628571D01*
X143464285Y-112771428D01*
X143392857Y-112842857D01*
X143250000Y-112914285D01*
X142678571Y-112914285D01*
X144178571Y-112842857D02*
X144678571Y-112842857D01*
X144892857Y-113628571D02*
X144178571Y-113628571D01*
X144178571Y-112128571D01*
X144892857Y-112128571D01*
X146392857Y-113485714D02*
X146321428Y-113557142D01*
X146107142Y-113628571D01*
X145964285Y-113628571D01*
X145750000Y-113557142D01*
X145607142Y-113414285D01*
X145535714Y-113271428D01*
X145464285Y-112985714D01*
X145464285Y-112771428D01*
X145535714Y-112485714D01*
X145607142Y-112342857D01*
X145750000Y-112200000D01*
X145964285Y-112128571D01*
X146107142Y-112128571D01*
X146321428Y-112200000D01*
X146392857Y-112271428D01*
D11*
X195861904Y-107975000D02*
X195766666Y-107927380D01*
X195623809Y-107927380D01*
X195480952Y-107975000D01*
X195385714Y-108070238D01*
X195338095Y-108165476D01*
X195290476Y-108355952D01*
X195290476Y-108498809D01*
X195338095Y-108689285D01*
X195385714Y-108784523D01*
X195480952Y-108879761D01*
X195623809Y-108927380D01*
X195719047Y-108927380D01*
X195861904Y-108879761D01*
X195909523Y-108832142D01*
X195909523Y-108498809D01*
X195719047Y-108498809D01*
X198534523Y-108927380D02*
X198201190Y-108451190D01*
X197963095Y-108927380D02*
X197963095Y-107927380D01*
X198344047Y-107927380D01*
X198439285Y-107975000D01*
X198486904Y-108022619D01*
X198534523Y-108117857D01*
X198534523Y-108260714D01*
X198486904Y-108355952D01*
X198439285Y-108403571D01*
X198344047Y-108451190D01*
X197963095Y-108451190D01*
X192888095Y-108927380D02*
X192888095Y-107927380D01*
X193126190Y-107927380D01*
X193269047Y-107975000D01*
X193364285Y-108070238D01*
X193411904Y-108165476D01*
X193459523Y-108355952D01*
X193459523Y-108498809D01*
X193411904Y-108689285D01*
X193364285Y-108784523D01*
X193269047Y-108879761D01*
X193126190Y-108927380D01*
X192888095Y-108927380D01*
X190834523Y-108832142D02*
X190786904Y-108879761D01*
X190644047Y-108927380D01*
X190548809Y-108927380D01*
X190405952Y-108879761D01*
X190310714Y-108784523D01*
X190263095Y-108689285D01*
X190215476Y-108498809D01*
X190215476Y-108355952D01*
X190263095Y-108165476D01*
X190310714Y-108070238D01*
X190405952Y-107975000D01*
X190548809Y-107927380D01*
X190644047Y-107927380D01*
X190786904Y-107975000D01*
X190834523Y-108022619D01*
D13*
X185764285Y-146653571D02*
X185264285Y-145939285D01*
X184907142Y-146653571D02*
X184907142Y-145153571D01*
X185478571Y-145153571D01*
X185621428Y-145225000D01*
X185692857Y-145296428D01*
X185764285Y-145439285D01*
X185764285Y-145653571D01*
X185692857Y-145796428D01*
X185621428Y-145867857D01*
X185478571Y-145939285D01*
X184907142Y-145939285D01*
X182346428Y-145153571D02*
X183203571Y-145153571D01*
X182775000Y-146653571D02*
X182775000Y-145153571D01*
X178082142Y-145178571D02*
X177367857Y-145178571D01*
X177296428Y-145892857D01*
X177367857Y-145821428D01*
X177510714Y-145750000D01*
X177867857Y-145750000D01*
X178010714Y-145821428D01*
X178082142Y-145892857D01*
X178153571Y-146035714D01*
X178153571Y-146392857D01*
X178082142Y-146535714D01*
X178010714Y-146607142D01*
X177867857Y-146678571D01*
X177510714Y-146678571D01*
X177367857Y-146607142D01*
X177296428Y-146535714D01*
D14*
X167828733Y-126510000D02*
X168171267Y-126510000D01*
X167828733Y-125490000D02*
X168171267Y-125490000D01*
D10*
X171350000Y-149600000D02*
X171350000Y-149800000D01*
X163850000Y-149600000D02*
X163850000Y-149800000D01*
X171350000Y-147300000D02*
X171350000Y-147400000D01*
X163850000Y-147300000D02*
X163850000Y-147400000D01*
X182400000Y-121050000D02*
X182400000Y-123000000D01*
X182400000Y-134900000D02*
X182400000Y-134300000D01*
X194000000Y-134900000D02*
X196100000Y-134900000D01*
X188000000Y-134900000D02*
X193000000Y-134900000D01*
X198350000Y-134200000D02*
X198350000Y-122100000D01*
X182400000Y-134900000D02*
X186600000Y-134900000D01*
X182400000Y-121050000D02*
X197000000Y-121050000D01*
D14*
X154610000Y-119600000D02*
X154610000Y-117150000D01*
X151390000Y-117800000D02*
X151390000Y-119600000D01*
X154610000Y-108900000D02*
X154610000Y-106450000D01*
X151390000Y-107100000D02*
X151390000Y-108900000D01*
X163300000Y-96980000D02*
X165300000Y-96980000D01*
X195920000Y-77360000D02*
X145380000Y-77360000D01*
X195920000Y-96600000D02*
X195920000Y-77360000D01*
X145380000Y-96600000D02*
X195920000Y-96600000D01*
X145380000Y-96600000D02*
X145380000Y-77360000D01*
X161190000Y-119700000D02*
X161190000Y-113690000D01*
X168010000Y-117450000D02*
X168010000Y-113690000D01*
X161190000Y-113690000D02*
X162450000Y-113690000D01*
X168010000Y-113690000D02*
X166750000Y-113690000D01*
X156300000Y-137511000D02*
X156300000Y-136271000D01*
X155060000Y-137511000D02*
X156300000Y-137511000D01*
X147440000Y-125550000D02*
X156060000Y-125550000D01*
X147440000Y-137271000D02*
X156060000Y-137271000D01*
X156060000Y-137271000D02*
X156060000Y-125550000D01*
X147440000Y-137271000D02*
X147440000Y-125550000D01*
X175390000Y-111890000D02*
X174075000Y-111890000D01*
X175390000Y-111590000D02*
X175390000Y-111890000D01*
X175690000Y-111590000D02*
X175390000Y-111590000D01*
X182610000Y-111590000D02*
X182610000Y-111890000D01*
X182310000Y-111590000D02*
X182610000Y-111590000D01*
X175390000Y-118810000D02*
X175390000Y-118510000D01*
X175690000Y-118810000D02*
X175390000Y-118810000D01*
X182610000Y-118810000D02*
X182610000Y-118510000D01*
X182310000Y-118810000D02*
X182610000Y-118810000D01*
D11*
X164325000Y-135375000D02*
X169600000Y-135375000D01*
X165600000Y-140775000D02*
X169600000Y-140775000D01*
D14*
X177130000Y-67570000D02*
X177130000Y-56650000D01*
X162890000Y-67570000D02*
X162890000Y-56650000D01*
X175130000Y-67570000D02*
X177130000Y-67570000D01*
X164890000Y-67570000D02*
X162890000Y-67570000D01*
X172890000Y-58730000D02*
X172890000Y-56650000D01*
X167130000Y-58730000D02*
X167130000Y-56650000D01*
X167130000Y-58730000D02*
X172890000Y-58730000D01*
X175130000Y-71970000D02*
X164890000Y-71970000D01*
X164890000Y-71970000D02*
X164890000Y-67570000D01*
X175130000Y-71970000D02*
X175130000Y-67570000D01*
X171665000Y-71970000D02*
X171665000Y-73850000D01*
X169755000Y-71970000D02*
X169755000Y-73850000D01*
X167845000Y-71970000D02*
X167845000Y-73850000D01*
X168355000Y-71970000D02*
X168355000Y-73850000D01*
X170265000Y-71970000D02*
X170265000Y-73850000D01*
X172175000Y-71970000D02*
X172175000Y-73850000D01*
D10*
X146250000Y-118200000D02*
G75*
G03X146250000Y-118200000I-1750000J0D01*
G01*
X141400000Y-115400000D02*
X141400000Y-121000000D01*
X147600000Y-115400000D02*
X147600000Y-121000000D01*
X145800000Y-121300000D02*
X143200000Y-121300000D01*
X145800000Y-115100000D02*
X143200000Y-115100000D01*
X162900000Y-126500000D02*
X162900000Y-127650000D01*
X163900000Y-126500000D02*
X162900000Y-126500000D01*
X163900000Y-127650000D02*
X163900000Y-126500000D01*
X163900000Y-127650000D02*
X162900000Y-127650000D01*
X162650000Y-126250000D02*
X162650000Y-129750000D01*
X162650000Y-129750000D02*
X164150000Y-129750000D01*
X164150000Y-126250000D02*
X164150000Y-129750000D01*
X162650000Y-126250000D02*
X164150000Y-126250000D01*
X165150000Y-131300000D02*
X165150000Y-132500000D01*
X165150000Y-123500000D02*
X165150000Y-124700000D01*
X161650000Y-128800000D02*
X161650000Y-132500000D01*
X161650000Y-132500000D02*
X165150000Y-132500000D01*
X165150000Y-123500000D02*
X161650000Y-123500000D01*
X161650000Y-123500000D02*
X161650000Y-127200000D01*
X165150000Y-126300000D02*
X165150000Y-129700000D01*
X146250000Y-107500000D02*
G75*
G03X146250000Y-107500000I-1750000J0D01*
G01*
X141400000Y-104700000D02*
X141400000Y-110300000D01*
X147600000Y-104700000D02*
X147600000Y-110300000D01*
X145800000Y-110600000D02*
X143200000Y-110600000D01*
X145800000Y-104400000D02*
X143200000Y-104400000D01*
X198450000Y-117650000D02*
X194550000Y-117650000D01*
X198450000Y-114750000D02*
X198450000Y-117650000D01*
X194550000Y-114750000D02*
X198450000Y-114750000D01*
X194550000Y-117650000D02*
X194550000Y-114750000D01*
D14*
X149628733Y-115510000D02*
X149971267Y-115510000D01*
X149628733Y-114490000D02*
X149971267Y-114490000D01*
X148990000Y-120628733D02*
X148990000Y-120971267D01*
X150010000Y-120628733D02*
X150010000Y-120971267D01*
X149628733Y-104810000D02*
X149971267Y-104810000D01*
X149628733Y-103790000D02*
X149971267Y-103790000D01*
X148890000Y-110028733D02*
X148890000Y-110371267D01*
X149910000Y-110028733D02*
X149910000Y-110371267D01*
X151178733Y-74210000D02*
X151521267Y-74210000D01*
X151178733Y-73190000D02*
X151521267Y-73190000D01*
X151178733Y-71360000D02*
X151521267Y-71360000D01*
X151178733Y-70340000D02*
X151521267Y-70340000D01*
X162210000Y-100471267D02*
X162210000Y-100128733D01*
X161190000Y-100471267D02*
X161190000Y-100128733D01*
X166010000Y-100471267D02*
X166010000Y-100128733D01*
X164990000Y-100471267D02*
X164990000Y-100128733D01*
X183010000Y-100471267D02*
X183010000Y-100128733D01*
X181990000Y-100471267D02*
X181990000Y-100128733D01*
X158410000Y-100471267D02*
X158410000Y-100128733D01*
X157390000Y-100471267D02*
X157390000Y-100128733D01*
X160310000Y-100471267D02*
X160310000Y-100128733D01*
X159290000Y-100471267D02*
X159290000Y-100128733D01*
X164110000Y-100471267D02*
X164110000Y-100128733D01*
X163090000Y-100471267D02*
X163090000Y-100128733D01*
X198210000Y-100471267D02*
X198210000Y-100128733D01*
X197190000Y-100471267D02*
X197190000Y-100128733D01*
X181110000Y-100471267D02*
X181110000Y-100128733D01*
X180090000Y-100471267D02*
X180090000Y-100128733D01*
X168203733Y-99910000D02*
X168546267Y-99910000D01*
X168203733Y-98890000D02*
X168546267Y-98890000D01*
X192003733Y-99910000D02*
X192346267Y-99910000D01*
X192003733Y-98890000D02*
X192346267Y-98890000D01*
X185303733Y-99910000D02*
X185646267Y-99910000D01*
X185303733Y-98890000D02*
X185646267Y-98890000D01*
X174803733Y-99910000D02*
X175146267Y-99910000D01*
X174803733Y-98890000D02*
X175146267Y-98890000D01*
X168546267Y-100790000D02*
X168203733Y-100790000D01*
X168546267Y-101810000D02*
X168203733Y-101810000D01*
X192346267Y-100790000D02*
X192003733Y-100790000D01*
X192346267Y-101810000D02*
X192003733Y-101810000D01*
X185646267Y-100790000D02*
X185303733Y-100790000D01*
X185646267Y-101810000D02*
X185303733Y-101810000D01*
X175146267Y-100790000D02*
X174803733Y-100790000D01*
X175146267Y-101810000D02*
X174803733Y-101810000D01*
X172010000Y-104346267D02*
X172010000Y-104003733D01*
X170990000Y-104346267D02*
X170990000Y-104003733D01*
X195910000Y-104346267D02*
X195910000Y-104003733D01*
X194890000Y-104346267D02*
X194890000Y-104003733D01*
X189210000Y-104346267D02*
X189210000Y-104003733D01*
X188190000Y-104346267D02*
X188190000Y-104003733D01*
X178871267Y-102790000D02*
X178528733Y-102790000D01*
X178871267Y-103810000D02*
X178528733Y-103810000D01*
X173171267Y-109090000D02*
X172828733Y-109090000D01*
X173171267Y-110110000D02*
X172828733Y-110110000D01*
X178728733Y-133410000D02*
X179071267Y-133410000D01*
X178728733Y-132390000D02*
X179071267Y-132390000D01*
X173528733Y-132310000D02*
X173871267Y-132310000D01*
X173528733Y-131290000D02*
X173871267Y-131290000D01*
X173528733Y-127910000D02*
X173871267Y-127910000D01*
X173528733Y-126890000D02*
X173871267Y-126890000D01*
X177628733Y-126810000D02*
X177971267Y-126810000D01*
X177628733Y-125790000D02*
X177971267Y-125790000D01*
X173528733Y-125710000D02*
X173871267Y-125710000D01*
X173528733Y-124690000D02*
X173871267Y-124690000D01*
X159871267Y-75640000D02*
X159528733Y-75640000D01*
X159871267Y-76660000D02*
X159528733Y-76660000D01*
X166870000Y-105060000D02*
X166870000Y-103600000D01*
X170030000Y-105060000D02*
X170030000Y-102900000D01*
X170030000Y-105060000D02*
X169100000Y-105060000D01*
X166870000Y-105060000D02*
X167800000Y-105060000D01*
X190670000Y-105060000D02*
X190670000Y-103600000D01*
X193830000Y-105060000D02*
X193830000Y-102900000D01*
X193830000Y-105060000D02*
X192900000Y-105060000D01*
X190670000Y-105060000D02*
X191600000Y-105060000D01*
X183970000Y-105060000D02*
X183970000Y-103600000D01*
X187130000Y-105060000D02*
X187130000Y-102900000D01*
X187130000Y-105060000D02*
X186200000Y-105060000D01*
X183970000Y-105060000D02*
X184900000Y-105060000D01*
X173470000Y-105060000D02*
X173470000Y-103600000D01*
X176630000Y-105060000D02*
X176630000Y-102900000D01*
X176630000Y-105060000D02*
X175700000Y-105060000D01*
X173470000Y-105060000D02*
X174400000Y-105060000D01*
X176370000Y-149530000D02*
X176370000Y-148200000D01*
X177700000Y-149530000D02*
X176370000Y-149530000D01*
X178970000Y-149530000D02*
X178970000Y-146870000D01*
X178970000Y-146870000D02*
X186650000Y-146870000D01*
X178970000Y-149530000D02*
X186650000Y-149530000D01*
X186650000Y-149530000D02*
X186650000Y-146870000D01*
X199530000Y-109070000D02*
X199530000Y-110400000D01*
X198200000Y-109070000D02*
X199530000Y-109070000D01*
X196930000Y-109070000D02*
X196930000Y-111730000D01*
X196930000Y-111730000D02*
X189250000Y-111730000D01*
X196930000Y-109070000D02*
X189250000Y-109070000D01*
X189250000Y-109070000D02*
X189250000Y-111730000D01*
D10*
X159000000Y-149900000D02*
X151500000Y-149900000D01*
X151500000Y-149900000D02*
X151500000Y-143500000D01*
X159000000Y-149900000D02*
X158990000Y-143500000D01*
X158990000Y-143500000D02*
X151500000Y-143500000D01*
D14*
X148510000Y-72965000D02*
X146050000Y-72965000D01*
X148510000Y-74435000D02*
X148510000Y-72965000D01*
X146050000Y-74435000D02*
X148510000Y-74435000D01*
X148510000Y-70115000D02*
X146050000Y-70115000D01*
X148510000Y-71585000D02*
X148510000Y-70115000D01*
X146050000Y-71585000D02*
X148510000Y-71585000D01*
X159450000Y-124300000D02*
X159450000Y-126850000D01*
X157750000Y-124300000D02*
X157750000Y-126850000D01*
X159450000Y-124300000D02*
X157750000Y-124300000D01*
X178550000Y-139900000D02*
X178550000Y-142450000D01*
X176850000Y-139900000D02*
X176850000Y-142450000D01*
X178550000Y-139900000D02*
X176850000Y-139900000D01*
X175750000Y-139900000D02*
X175750000Y-142450000D01*
X174050000Y-139900000D02*
X174050000Y-142450000D01*
X175750000Y-139900000D02*
X174050000Y-139900000D01*
X153628733Y-115510000D02*
X153971267Y-115510000D01*
X153628733Y-114490000D02*
X153971267Y-114490000D01*
X153628733Y-104810000D02*
X153971267Y-104810000D01*
X153628733Y-103790000D02*
X153971267Y-103790000D01*
X163896267Y-109490000D02*
X163553733Y-109490000D01*
X163896267Y-110510000D02*
X163553733Y-110510000D01*
X169971267Y-121990000D02*
X169628733Y-121990000D01*
X169971267Y-123010000D02*
X169628733Y-123010000D01*
X158090000Y-129528733D02*
X158090000Y-129871267D01*
X159110000Y-129528733D02*
X159110000Y-129871267D01*
X154703733Y-140410000D02*
X155046267Y-140410000D01*
X154703733Y-139390000D02*
X155046267Y-139390000D01*
X194728733Y-119310000D02*
X195071267Y-119310000D01*
X194728733Y-118290000D02*
X195071267Y-118290000D01*
X172190000Y-139228733D02*
X172190000Y-139571267D01*
X173210000Y-139228733D02*
X173210000Y-139571267D01*
X186228733Y-118610000D02*
X186571267Y-118610000D01*
X186228733Y-117590000D02*
X186571267Y-117590000D01*
X170671267Y-114890000D02*
X170328733Y-114890000D01*
X170671267Y-115910000D02*
X170328733Y-115910000D01*
X170671267Y-111890000D02*
X170328733Y-111890000D01*
X170671267Y-112910000D02*
X170328733Y-112910000D01*
X167828733Y-134610000D02*
X168171267Y-134610000D01*
X167828733Y-133590000D02*
X168171267Y-133590000D01*
X157010000Y-75471267D02*
X157010000Y-75128733D01*
X155990000Y-75471267D02*
X155990000Y-75128733D01*
X176390000Y-129228733D02*
X176390000Y-129571267D01*
X177410000Y-129228733D02*
X177410000Y-129571267D01*
D11*
X167357142Y-127757142D02*
X167309523Y-127804761D01*
X167166666Y-127852380D01*
X167071428Y-127852380D01*
X166928571Y-127804761D01*
X166833333Y-127709523D01*
X166785714Y-127614285D01*
X166738095Y-127423809D01*
X166738095Y-127280952D01*
X166785714Y-127090476D01*
X166833333Y-126995238D01*
X166928571Y-126900000D01*
X167071428Y-126852380D01*
X167166666Y-126852380D01*
X167309523Y-126900000D01*
X167357142Y-126947619D01*
X168309523Y-127852380D02*
X167738095Y-127852380D01*
X168023809Y-127852380D02*
X168023809Y-126852380D01*
X167928571Y-126995238D01*
X167833333Y-127090476D01*
X167738095Y-127138095D01*
X169214285Y-126852380D02*
X168738095Y-126852380D01*
X168690476Y-127328571D01*
X168738095Y-127280952D01*
X168833333Y-127233333D01*
X169071428Y-127233333D01*
X169166666Y-127280952D01*
X169214285Y-127328571D01*
X169261904Y-127423809D01*
X169261904Y-127661904D01*
X169214285Y-127757142D01*
X169166666Y-127804761D01*
X169071428Y-127852380D01*
X168833333Y-127852380D01*
X168738095Y-127804761D01*
X168690476Y-127757142D01*
D10*
X167266666Y-143852380D02*
X167266666Y-144566666D01*
X167219047Y-144709523D01*
X167123809Y-144804761D01*
X166980952Y-144852380D01*
X166885714Y-144852380D01*
X167647619Y-143852380D02*
X168314285Y-143852380D01*
X167885714Y-144852380D01*
X181066666Y-124552380D02*
X181066666Y-125266666D01*
X181019047Y-125409523D01*
X180923809Y-125504761D01*
X180780952Y-125552380D01*
X180685714Y-125552380D01*
X181971428Y-124552380D02*
X181780952Y-124552380D01*
X181685714Y-124600000D01*
X181638095Y-124647619D01*
X181542857Y-124790476D01*
X181495238Y-124980952D01*
X181495238Y-125361904D01*
X181542857Y-125457142D01*
X181590476Y-125504761D01*
X181685714Y-125552380D01*
X181876190Y-125552380D01*
X181971428Y-125504761D01*
X182019047Y-125457142D01*
X182066666Y-125361904D01*
X182066666Y-125123809D01*
X182019047Y-125028571D01*
X181971428Y-124980952D01*
X181876190Y-124933333D01*
X181685714Y-124933333D01*
X181590476Y-124980952D01*
X181542857Y-125028571D01*
X181495238Y-125123809D01*
D11*
X154938095Y-118152380D02*
X154938095Y-118961904D01*
X154985714Y-119057142D01*
X155033333Y-119104761D01*
X155128571Y-119152380D01*
X155319047Y-119152380D01*
X155414285Y-119104761D01*
X155461904Y-119057142D01*
X155509523Y-118961904D01*
X155509523Y-118152380D01*
X156128571Y-118580952D02*
X156033333Y-118533333D01*
X155985714Y-118485714D01*
X155938095Y-118390476D01*
X155938095Y-118342857D01*
X155985714Y-118247619D01*
X156033333Y-118200000D01*
X156128571Y-118152380D01*
X156319047Y-118152380D01*
X156414285Y-118200000D01*
X156461904Y-118247619D01*
X156509523Y-118342857D01*
X156509523Y-118390476D01*
X156461904Y-118485714D01*
X156414285Y-118533333D01*
X156319047Y-118580952D01*
X156128571Y-118580952D01*
X156033333Y-118628571D01*
X155985714Y-118676190D01*
X155938095Y-118771428D01*
X155938095Y-118961904D01*
X155985714Y-119057142D01*
X156033333Y-119104761D01*
X156128571Y-119152380D01*
X156319047Y-119152380D01*
X156414285Y-119104761D01*
X156461904Y-119057142D01*
X156509523Y-118961904D01*
X156509523Y-118771428D01*
X156461904Y-118676190D01*
X156414285Y-118628571D01*
X156319047Y-118580952D01*
X154938095Y-107452380D02*
X154938095Y-108261904D01*
X154985714Y-108357142D01*
X155033333Y-108404761D01*
X155128571Y-108452380D01*
X155319047Y-108452380D01*
X155414285Y-108404761D01*
X155461904Y-108357142D01*
X155509523Y-108261904D01*
X155509523Y-107452380D01*
X155890476Y-107452380D02*
X156557142Y-107452380D01*
X156128571Y-108452380D01*
X143513095Y-94052380D02*
X143513095Y-94861904D01*
X143560714Y-94957142D01*
X143608333Y-95004761D01*
X143703571Y-95052380D01*
X143894047Y-95052380D01*
X143989285Y-95004761D01*
X144036904Y-94957142D01*
X144084523Y-94861904D01*
X144084523Y-94052380D01*
X144989285Y-94052380D02*
X144798809Y-94052380D01*
X144703571Y-94100000D01*
X144655952Y-94147619D01*
X144560714Y-94290476D01*
X144513095Y-94480952D01*
X144513095Y-94861904D01*
X144560714Y-94957142D01*
X144608333Y-95004761D01*
X144703571Y-95052380D01*
X144894047Y-95052380D01*
X144989285Y-95004761D01*
X145036904Y-94957142D01*
X145084523Y-94861904D01*
X145084523Y-94623809D01*
X145036904Y-94528571D01*
X144989285Y-94480952D01*
X144894047Y-94433333D01*
X144703571Y-94433333D01*
X144608333Y-94480952D01*
X144560714Y-94528571D01*
X144513095Y-94623809D01*
X163838095Y-120152380D02*
X163838095Y-120961904D01*
X163885714Y-121057142D01*
X163933333Y-121104761D01*
X164028571Y-121152380D01*
X164219047Y-121152380D01*
X164314285Y-121104761D01*
X164361904Y-121057142D01*
X164409523Y-120961904D01*
X164409523Y-120152380D01*
X165361904Y-120152380D02*
X164885714Y-120152380D01*
X164838095Y-120628571D01*
X164885714Y-120580952D01*
X164980952Y-120533333D01*
X165219047Y-120533333D01*
X165314285Y-120580952D01*
X165361904Y-120628571D01*
X165409523Y-120723809D01*
X165409523Y-120961904D01*
X165361904Y-121057142D01*
X165314285Y-121104761D01*
X165219047Y-121152380D01*
X164980952Y-121152380D01*
X164885714Y-121104761D01*
X164838095Y-121057142D01*
X150738095Y-137652380D02*
X150738095Y-138461904D01*
X150785714Y-138557142D01*
X150833333Y-138604761D01*
X150928571Y-138652380D01*
X151119047Y-138652380D01*
X151214285Y-138604761D01*
X151261904Y-138557142D01*
X151309523Y-138461904D01*
X151309523Y-137652380D01*
X152214285Y-137985714D02*
X152214285Y-138652380D01*
X151976190Y-137604761D02*
X151738095Y-138319047D01*
X152357142Y-138319047D01*
X182538095Y-110252380D02*
X182538095Y-111061904D01*
X182585714Y-111157142D01*
X182633333Y-111204761D01*
X182728571Y-111252380D01*
X182919047Y-111252380D01*
X183014285Y-111204761D01*
X183061904Y-111157142D01*
X183109523Y-111061904D01*
X183109523Y-110252380D01*
X183490476Y-110252380D02*
X184109523Y-110252380D01*
X183776190Y-110633333D01*
X183919047Y-110633333D01*
X184014285Y-110680952D01*
X184061904Y-110728571D01*
X184109523Y-110823809D01*
X184109523Y-111061904D01*
X184061904Y-111157142D01*
X184014285Y-111204761D01*
X183919047Y-111252380D01*
X183633333Y-111252380D01*
X183538095Y-111204761D01*
X183490476Y-111157142D01*
X166838095Y-141074880D02*
X166838095Y-141884404D01*
X166885714Y-141979642D01*
X166933333Y-142027261D01*
X167028571Y-142074880D01*
X167219047Y-142074880D01*
X167314285Y-142027261D01*
X167361904Y-141979642D01*
X167409523Y-141884404D01*
X167409523Y-141074880D01*
X167838095Y-141170119D02*
X167885714Y-141122500D01*
X167980952Y-141074880D01*
X168219047Y-141074880D01*
X168314285Y-141122500D01*
X168361904Y-141170119D01*
X168409523Y-141265357D01*
X168409523Y-141360595D01*
X168361904Y-141503452D01*
X167790476Y-142074880D01*
X168409523Y-142074880D01*
X162988095Y-67902380D02*
X162988095Y-68711904D01*
X163035714Y-68807142D01*
X163083333Y-68854761D01*
X163178571Y-68902380D01*
X163369047Y-68902380D01*
X163464285Y-68854761D01*
X163511904Y-68807142D01*
X163559523Y-68711904D01*
X163559523Y-67902380D01*
X164559523Y-68902380D02*
X163988095Y-68902380D01*
X164273809Y-68902380D02*
X164273809Y-67902380D01*
X164178571Y-68045238D01*
X164083333Y-68140476D01*
X163988095Y-68188095D01*
D10*
X143166666Y-118604761D02*
X143309523Y-118652380D01*
X143547619Y-118652380D01*
X143642857Y-118604761D01*
X143690476Y-118557142D01*
X143738095Y-118461904D01*
X143738095Y-118366666D01*
X143690476Y-118271428D01*
X143642857Y-118223809D01*
X143547619Y-118176190D01*
X143357142Y-118128571D01*
X143261904Y-118080952D01*
X143214285Y-118033333D01*
X143166666Y-117938095D01*
X143166666Y-117842857D01*
X143214285Y-117747619D01*
X143261904Y-117700000D01*
X143357142Y-117652380D01*
X143595238Y-117652380D01*
X143738095Y-117700000D01*
X144071428Y-117652380D02*
X144309523Y-118652380D01*
X144500000Y-117938095D01*
X144690476Y-118652380D01*
X144928571Y-117652380D01*
X145738095Y-117985714D02*
X145738095Y-118652380D01*
X145500000Y-117604761D02*
X145261904Y-118319047D01*
X145880952Y-118319047D01*
X161866666Y-132229761D02*
X162009523Y-132277380D01*
X162247619Y-132277380D01*
X162342857Y-132229761D01*
X162390476Y-132182142D01*
X162438095Y-132086904D01*
X162438095Y-131991666D01*
X162390476Y-131896428D01*
X162342857Y-131848809D01*
X162247619Y-131801190D01*
X162057142Y-131753571D01*
X161961904Y-131705952D01*
X161914285Y-131658333D01*
X161866666Y-131563095D01*
X161866666Y-131467857D01*
X161914285Y-131372619D01*
X161961904Y-131325000D01*
X162057142Y-131277380D01*
X162295238Y-131277380D01*
X162438095Y-131325000D01*
X162771428Y-131277380D02*
X163009523Y-132277380D01*
X163200000Y-131563095D01*
X163390476Y-132277380D01*
X163628571Y-131277380D01*
X163914285Y-131277380D02*
X164533333Y-131277380D01*
X164200000Y-131658333D01*
X164342857Y-131658333D01*
X164438095Y-131705952D01*
X164485714Y-131753571D01*
X164533333Y-131848809D01*
X164533333Y-132086904D01*
X164485714Y-132182142D01*
X164438095Y-132229761D01*
X164342857Y-132277380D01*
X164057142Y-132277380D01*
X163961904Y-132229761D01*
X163914285Y-132182142D01*
X143166666Y-107904761D02*
X143309523Y-107952380D01*
X143547619Y-107952380D01*
X143642857Y-107904761D01*
X143690476Y-107857142D01*
X143738095Y-107761904D01*
X143738095Y-107666666D01*
X143690476Y-107571428D01*
X143642857Y-107523809D01*
X143547619Y-107476190D01*
X143357142Y-107428571D01*
X143261904Y-107380952D01*
X143214285Y-107333333D01*
X143166666Y-107238095D01*
X143166666Y-107142857D01*
X143214285Y-107047619D01*
X143261904Y-107000000D01*
X143357142Y-106952380D01*
X143595238Y-106952380D01*
X143738095Y-107000000D01*
X144071428Y-106952380D02*
X144309523Y-107952380D01*
X144500000Y-107238095D01*
X144690476Y-107952380D01*
X144928571Y-106952380D01*
X145261904Y-107047619D02*
X145309523Y-107000000D01*
X145404761Y-106952380D01*
X145642857Y-106952380D01*
X145738095Y-107000000D01*
X145785714Y-107047619D01*
X145833333Y-107142857D01*
X145833333Y-107238095D01*
X145785714Y-107380952D01*
X145214285Y-107952380D01*
X145833333Y-107952380D01*
X195166666Y-116654761D02*
X195309523Y-116702380D01*
X195547619Y-116702380D01*
X195642857Y-116654761D01*
X195690476Y-116607142D01*
X195738095Y-116511904D01*
X195738095Y-116416666D01*
X195690476Y-116321428D01*
X195642857Y-116273809D01*
X195547619Y-116226190D01*
X195357142Y-116178571D01*
X195261904Y-116130952D01*
X195214285Y-116083333D01*
X195166666Y-115988095D01*
X195166666Y-115892857D01*
X195214285Y-115797619D01*
X195261904Y-115750000D01*
X195357142Y-115702380D01*
X195595238Y-115702380D01*
X195738095Y-115750000D01*
X196071428Y-115702380D02*
X196309523Y-116702380D01*
X196500000Y-115988095D01*
X196690476Y-116702380D01*
X196928571Y-115702380D01*
X197833333Y-116702380D02*
X197261904Y-116702380D01*
X197547619Y-116702380D02*
X197547619Y-115702380D01*
X197452380Y-115845238D01*
X197357142Y-115940476D01*
X197261904Y-115988095D01*
D11*
X149157142Y-114022380D02*
X148823809Y-113546190D01*
X148585714Y-114022380D02*
X148585714Y-113022380D01*
X148966666Y-113022380D01*
X149061904Y-113070000D01*
X149109523Y-113117619D01*
X149157142Y-113212857D01*
X149157142Y-113355714D01*
X149109523Y-113450952D01*
X149061904Y-113498571D01*
X148966666Y-113546190D01*
X148585714Y-113546190D01*
X149490476Y-113022380D02*
X150109523Y-113022380D01*
X149776190Y-113403333D01*
X149919047Y-113403333D01*
X150014285Y-113450952D01*
X150061904Y-113498571D01*
X150109523Y-113593809D01*
X150109523Y-113831904D01*
X150061904Y-113927142D01*
X150014285Y-113974761D01*
X149919047Y-114022380D01*
X149633333Y-114022380D01*
X149538095Y-113974761D01*
X149490476Y-113927142D01*
X150442857Y-113022380D02*
X151061904Y-113022380D01*
X150728571Y-113403333D01*
X150871428Y-113403333D01*
X150966666Y-113450952D01*
X151014285Y-113498571D01*
X151061904Y-113593809D01*
X151061904Y-113831904D01*
X151014285Y-113927142D01*
X150966666Y-113974761D01*
X150871428Y-114022380D01*
X150585714Y-114022380D01*
X150490476Y-113974761D01*
X150442857Y-113927142D01*
X148857142Y-118952380D02*
X148523809Y-118476190D01*
X148285714Y-118952380D02*
X148285714Y-117952380D01*
X148666666Y-117952380D01*
X148761904Y-118000000D01*
X148809523Y-118047619D01*
X148857142Y-118142857D01*
X148857142Y-118285714D01*
X148809523Y-118380952D01*
X148761904Y-118428571D01*
X148666666Y-118476190D01*
X148285714Y-118476190D01*
X149190476Y-117952380D02*
X149809523Y-117952380D01*
X149476190Y-118333333D01*
X149619047Y-118333333D01*
X149714285Y-118380952D01*
X149761904Y-118428571D01*
X149809523Y-118523809D01*
X149809523Y-118761904D01*
X149761904Y-118857142D01*
X149714285Y-118904761D01*
X149619047Y-118952380D01*
X149333333Y-118952380D01*
X149238095Y-118904761D01*
X149190476Y-118857142D01*
X150190476Y-118047619D02*
X150238095Y-118000000D01*
X150333333Y-117952380D01*
X150571428Y-117952380D01*
X150666666Y-118000000D01*
X150714285Y-118047619D01*
X150761904Y-118142857D01*
X150761904Y-118238095D01*
X150714285Y-118380952D01*
X150142857Y-118952380D01*
X150761904Y-118952380D01*
X149157142Y-103452380D02*
X148823809Y-102976190D01*
X148585714Y-103452380D02*
X148585714Y-102452380D01*
X148966666Y-102452380D01*
X149061904Y-102500000D01*
X149109523Y-102547619D01*
X149157142Y-102642857D01*
X149157142Y-102785714D01*
X149109523Y-102880952D01*
X149061904Y-102928571D01*
X148966666Y-102976190D01*
X148585714Y-102976190D01*
X149490476Y-102452380D02*
X150109523Y-102452380D01*
X149776190Y-102833333D01*
X149919047Y-102833333D01*
X150014285Y-102880952D01*
X150061904Y-102928571D01*
X150109523Y-103023809D01*
X150109523Y-103261904D01*
X150061904Y-103357142D01*
X150014285Y-103404761D01*
X149919047Y-103452380D01*
X149633333Y-103452380D01*
X149538095Y-103404761D01*
X149490476Y-103357142D01*
X151061904Y-103452380D02*
X150490476Y-103452380D01*
X150776190Y-103452380D02*
X150776190Y-102452380D01*
X150680952Y-102595238D01*
X150585714Y-102690476D01*
X150490476Y-102738095D01*
X148757142Y-108352380D02*
X148423809Y-107876190D01*
X148185714Y-108352380D02*
X148185714Y-107352380D01*
X148566666Y-107352380D01*
X148661904Y-107400000D01*
X148709523Y-107447619D01*
X148757142Y-107542857D01*
X148757142Y-107685714D01*
X148709523Y-107780952D01*
X148661904Y-107828571D01*
X148566666Y-107876190D01*
X148185714Y-107876190D01*
X149090476Y-107352380D02*
X149709523Y-107352380D01*
X149376190Y-107733333D01*
X149519047Y-107733333D01*
X149614285Y-107780952D01*
X149661904Y-107828571D01*
X149709523Y-107923809D01*
X149709523Y-108161904D01*
X149661904Y-108257142D01*
X149614285Y-108304761D01*
X149519047Y-108352380D01*
X149233333Y-108352380D01*
X149138095Y-108304761D01*
X149090476Y-108257142D01*
X150328571Y-107352380D02*
X150423809Y-107352380D01*
X150519047Y-107400000D01*
X150566666Y-107447619D01*
X150614285Y-107542857D01*
X150661904Y-107733333D01*
X150661904Y-107971428D01*
X150614285Y-108161904D01*
X150566666Y-108257142D01*
X150519047Y-108304761D01*
X150423809Y-108352380D01*
X150328571Y-108352380D01*
X150233333Y-108304761D01*
X150185714Y-108257142D01*
X150138095Y-108161904D01*
X150090476Y-107971428D01*
X150090476Y-107733333D01*
X150138095Y-107542857D01*
X150185714Y-107447619D01*
X150233333Y-107400000D01*
X150328571Y-107352380D01*
X150707142Y-75552380D02*
X150373809Y-75076190D01*
X150135714Y-75552380D02*
X150135714Y-74552380D01*
X150516666Y-74552380D01*
X150611904Y-74600000D01*
X150659523Y-74647619D01*
X150707142Y-74742857D01*
X150707142Y-74885714D01*
X150659523Y-74980952D01*
X150611904Y-75028571D01*
X150516666Y-75076190D01*
X150135714Y-75076190D01*
X151088095Y-74647619D02*
X151135714Y-74600000D01*
X151230952Y-74552380D01*
X151469047Y-74552380D01*
X151564285Y-74600000D01*
X151611904Y-74647619D01*
X151659523Y-74742857D01*
X151659523Y-74838095D01*
X151611904Y-74980952D01*
X151040476Y-75552380D01*
X151659523Y-75552380D01*
X152135714Y-75552380D02*
X152326190Y-75552380D01*
X152421428Y-75504761D01*
X152469047Y-75457142D01*
X152564285Y-75314285D01*
X152611904Y-75123809D01*
X152611904Y-74742857D01*
X152564285Y-74647619D01*
X152516666Y-74600000D01*
X152421428Y-74552380D01*
X152230952Y-74552380D01*
X152135714Y-74600000D01*
X152088095Y-74647619D01*
X152040476Y-74742857D01*
X152040476Y-74980952D01*
X152088095Y-75076190D01*
X152135714Y-75123809D01*
X152230952Y-75171428D01*
X152421428Y-75171428D01*
X152516666Y-75123809D01*
X152564285Y-75076190D01*
X152611904Y-74980952D01*
X150707142Y-72702380D02*
X150373809Y-72226190D01*
X150135714Y-72702380D02*
X150135714Y-71702380D01*
X150516666Y-71702380D01*
X150611904Y-71750000D01*
X150659523Y-71797619D01*
X150707142Y-71892857D01*
X150707142Y-72035714D01*
X150659523Y-72130952D01*
X150611904Y-72178571D01*
X150516666Y-72226190D01*
X150135714Y-72226190D01*
X151088095Y-71797619D02*
X151135714Y-71750000D01*
X151230952Y-71702380D01*
X151469047Y-71702380D01*
X151564285Y-71750000D01*
X151611904Y-71797619D01*
X151659523Y-71892857D01*
X151659523Y-71988095D01*
X151611904Y-72130952D01*
X151040476Y-72702380D01*
X151659523Y-72702380D01*
X152230952Y-72130952D02*
X152135714Y-72083333D01*
X152088095Y-72035714D01*
X152040476Y-71940476D01*
X152040476Y-71892857D01*
X152088095Y-71797619D01*
X152135714Y-71750000D01*
X152230952Y-71702380D01*
X152421428Y-71702380D01*
X152516666Y-71750000D01*
X152564285Y-71797619D01*
X152611904Y-71892857D01*
X152611904Y-71940476D01*
X152564285Y-72035714D01*
X152516666Y-72083333D01*
X152421428Y-72130952D01*
X152230952Y-72130952D01*
X152135714Y-72178571D01*
X152088095Y-72226190D01*
X152040476Y-72321428D01*
X152040476Y-72511904D01*
X152088095Y-72607142D01*
X152135714Y-72654761D01*
X152230952Y-72702380D01*
X152421428Y-72702380D01*
X152516666Y-72654761D01*
X152564285Y-72607142D01*
X152611904Y-72511904D01*
X152611904Y-72321428D01*
X152564285Y-72226190D01*
X152516666Y-72178571D01*
X152421428Y-72130952D01*
X162152380Y-104042857D02*
X161676190Y-104376190D01*
X162152380Y-104614285D02*
X161152380Y-104614285D01*
X161152380Y-104233333D01*
X161200000Y-104138095D01*
X161247619Y-104090476D01*
X161342857Y-104042857D01*
X161485714Y-104042857D01*
X161580952Y-104090476D01*
X161628571Y-104138095D01*
X161676190Y-104233333D01*
X161676190Y-104614285D01*
X161247619Y-103661904D02*
X161200000Y-103614285D01*
X161152380Y-103519047D01*
X161152380Y-103280952D01*
X161200000Y-103185714D01*
X161247619Y-103138095D01*
X161342857Y-103090476D01*
X161438095Y-103090476D01*
X161580952Y-103138095D01*
X162152380Y-103709523D01*
X162152380Y-103090476D01*
X161152380Y-102757142D02*
X161152380Y-102090476D01*
X162152380Y-102519047D01*
X165952380Y-104042857D02*
X165476190Y-104376190D01*
X165952380Y-104614285D02*
X164952380Y-104614285D01*
X164952380Y-104233333D01*
X165000000Y-104138095D01*
X165047619Y-104090476D01*
X165142857Y-104042857D01*
X165285714Y-104042857D01*
X165380952Y-104090476D01*
X165428571Y-104138095D01*
X165476190Y-104233333D01*
X165476190Y-104614285D01*
X165047619Y-103661904D02*
X165000000Y-103614285D01*
X164952380Y-103519047D01*
X164952380Y-103280952D01*
X165000000Y-103185714D01*
X165047619Y-103138095D01*
X165142857Y-103090476D01*
X165238095Y-103090476D01*
X165380952Y-103138095D01*
X165952380Y-103709523D01*
X165952380Y-103090476D01*
X164952380Y-102233333D02*
X164952380Y-102423809D01*
X165000000Y-102519047D01*
X165047619Y-102566666D01*
X165190476Y-102661904D01*
X165380952Y-102709523D01*
X165761904Y-102709523D01*
X165857142Y-102661904D01*
X165904761Y-102614285D01*
X165952380Y-102519047D01*
X165952380Y-102328571D01*
X165904761Y-102233333D01*
X165857142Y-102185714D01*
X165761904Y-102138095D01*
X165523809Y-102138095D01*
X165428571Y-102185714D01*
X165380952Y-102233333D01*
X165333333Y-102328571D01*
X165333333Y-102519047D01*
X165380952Y-102614285D01*
X165428571Y-102661904D01*
X165523809Y-102709523D01*
X181857142Y-103252380D02*
X181523809Y-102776190D01*
X181285714Y-103252380D02*
X181285714Y-102252380D01*
X181666666Y-102252380D01*
X181761904Y-102300000D01*
X181809523Y-102347619D01*
X181857142Y-102442857D01*
X181857142Y-102585714D01*
X181809523Y-102680952D01*
X181761904Y-102728571D01*
X181666666Y-102776190D01*
X181285714Y-102776190D01*
X182238095Y-102347619D02*
X182285714Y-102300000D01*
X182380952Y-102252380D01*
X182619047Y-102252380D01*
X182714285Y-102300000D01*
X182761904Y-102347619D01*
X182809523Y-102442857D01*
X182809523Y-102538095D01*
X182761904Y-102680952D01*
X182190476Y-103252380D01*
X182809523Y-103252380D01*
X183714285Y-102252380D02*
X183238095Y-102252380D01*
X183190476Y-102728571D01*
X183238095Y-102680952D01*
X183333333Y-102633333D01*
X183571428Y-102633333D01*
X183666666Y-102680952D01*
X183714285Y-102728571D01*
X183761904Y-102823809D01*
X183761904Y-103061904D01*
X183714285Y-103157142D01*
X183666666Y-103204761D01*
X183571428Y-103252380D01*
X183333333Y-103252380D01*
X183238095Y-103204761D01*
X183190476Y-103157142D01*
X158352380Y-104042857D02*
X157876190Y-104376190D01*
X158352380Y-104614285D02*
X157352380Y-104614285D01*
X157352380Y-104233333D01*
X157400000Y-104138095D01*
X157447619Y-104090476D01*
X157542857Y-104042857D01*
X157685714Y-104042857D01*
X157780952Y-104090476D01*
X157828571Y-104138095D01*
X157876190Y-104233333D01*
X157876190Y-104614285D01*
X157447619Y-103661904D02*
X157400000Y-103614285D01*
X157352380Y-103519047D01*
X157352380Y-103280952D01*
X157400000Y-103185714D01*
X157447619Y-103138095D01*
X157542857Y-103090476D01*
X157638095Y-103090476D01*
X157780952Y-103138095D01*
X158352380Y-103709523D01*
X158352380Y-103090476D01*
X157685714Y-102233333D02*
X158352380Y-102233333D01*
X157304761Y-102471428D02*
X158019047Y-102709523D01*
X158019047Y-102090476D01*
X160252380Y-104042857D02*
X159776190Y-104376190D01*
X160252380Y-104614285D02*
X159252380Y-104614285D01*
X159252380Y-104233333D01*
X159300000Y-104138095D01*
X159347619Y-104090476D01*
X159442857Y-104042857D01*
X159585714Y-104042857D01*
X159680952Y-104090476D01*
X159728571Y-104138095D01*
X159776190Y-104233333D01*
X159776190Y-104614285D01*
X159347619Y-103661904D02*
X159300000Y-103614285D01*
X159252380Y-103519047D01*
X159252380Y-103280952D01*
X159300000Y-103185714D01*
X159347619Y-103138095D01*
X159442857Y-103090476D01*
X159538095Y-103090476D01*
X159680952Y-103138095D01*
X160252380Y-103709523D01*
X160252380Y-103090476D01*
X159252380Y-102757142D02*
X159252380Y-102138095D01*
X159633333Y-102471428D01*
X159633333Y-102328571D01*
X159680952Y-102233333D01*
X159728571Y-102185714D01*
X159823809Y-102138095D01*
X160061904Y-102138095D01*
X160157142Y-102185714D01*
X160204761Y-102233333D01*
X160252380Y-102328571D01*
X160252380Y-102614285D01*
X160204761Y-102709523D01*
X160157142Y-102757142D01*
X164052380Y-104042857D02*
X163576190Y-104376190D01*
X164052380Y-104614285D02*
X163052380Y-104614285D01*
X163052380Y-104233333D01*
X163100000Y-104138095D01*
X163147619Y-104090476D01*
X163242857Y-104042857D01*
X163385714Y-104042857D01*
X163480952Y-104090476D01*
X163528571Y-104138095D01*
X163576190Y-104233333D01*
X163576190Y-104614285D01*
X163147619Y-103661904D02*
X163100000Y-103614285D01*
X163052380Y-103519047D01*
X163052380Y-103280952D01*
X163100000Y-103185714D01*
X163147619Y-103138095D01*
X163242857Y-103090476D01*
X163338095Y-103090476D01*
X163480952Y-103138095D01*
X164052380Y-103709523D01*
X164052380Y-103090476D01*
X163147619Y-102709523D02*
X163100000Y-102661904D01*
X163052380Y-102566666D01*
X163052380Y-102328571D01*
X163100000Y-102233333D01*
X163147619Y-102185714D01*
X163242857Y-102138095D01*
X163338095Y-102138095D01*
X163480952Y-102185714D01*
X164052380Y-102757142D01*
X164052380Y-102138095D01*
X198152380Y-104042857D02*
X197676190Y-104376190D01*
X198152380Y-104614285D02*
X197152380Y-104614285D01*
X197152380Y-104233333D01*
X197200000Y-104138095D01*
X197247619Y-104090476D01*
X197342857Y-104042857D01*
X197485714Y-104042857D01*
X197580952Y-104090476D01*
X197628571Y-104138095D01*
X197676190Y-104233333D01*
X197676190Y-104614285D01*
X197247619Y-103661904D02*
X197200000Y-103614285D01*
X197152380Y-103519047D01*
X197152380Y-103280952D01*
X197200000Y-103185714D01*
X197247619Y-103138095D01*
X197342857Y-103090476D01*
X197438095Y-103090476D01*
X197580952Y-103138095D01*
X198152380Y-103709523D01*
X198152380Y-103090476D01*
X198152380Y-102138095D02*
X198152380Y-102709523D01*
X198152380Y-102423809D02*
X197152380Y-102423809D01*
X197295238Y-102519047D01*
X197390476Y-102614285D01*
X197438095Y-102709523D01*
X179957142Y-98352380D02*
X179623809Y-97876190D01*
X179385714Y-98352380D02*
X179385714Y-97352380D01*
X179766666Y-97352380D01*
X179861904Y-97400000D01*
X179909523Y-97447619D01*
X179957142Y-97542857D01*
X179957142Y-97685714D01*
X179909523Y-97780952D01*
X179861904Y-97828571D01*
X179766666Y-97876190D01*
X179385714Y-97876190D01*
X180338095Y-97447619D02*
X180385714Y-97400000D01*
X180480952Y-97352380D01*
X180719047Y-97352380D01*
X180814285Y-97400000D01*
X180861904Y-97447619D01*
X180909523Y-97542857D01*
X180909523Y-97638095D01*
X180861904Y-97780952D01*
X180290476Y-98352380D01*
X180909523Y-98352380D01*
X181528571Y-97352380D02*
X181623809Y-97352380D01*
X181719047Y-97400000D01*
X181766666Y-97447619D01*
X181814285Y-97542857D01*
X181861904Y-97733333D01*
X181861904Y-97971428D01*
X181814285Y-98161904D01*
X181766666Y-98257142D01*
X181719047Y-98304761D01*
X181623809Y-98352380D01*
X181528571Y-98352380D01*
X181433333Y-98304761D01*
X181385714Y-98257142D01*
X181338095Y-98161904D01*
X181290476Y-97971428D01*
X181290476Y-97733333D01*
X181338095Y-97542857D01*
X181385714Y-97447619D01*
X181433333Y-97400000D01*
X181528571Y-97352380D01*
X170832142Y-99852380D02*
X170498809Y-99376190D01*
X170260714Y-99852380D02*
X170260714Y-98852380D01*
X170641666Y-98852380D01*
X170736904Y-98900000D01*
X170784523Y-98947619D01*
X170832142Y-99042857D01*
X170832142Y-99185714D01*
X170784523Y-99280952D01*
X170736904Y-99328571D01*
X170641666Y-99376190D01*
X170260714Y-99376190D01*
X171784523Y-99852380D02*
X171213095Y-99852380D01*
X171498809Y-99852380D02*
X171498809Y-98852380D01*
X171403571Y-98995238D01*
X171308333Y-99090476D01*
X171213095Y-99138095D01*
X172260714Y-99852380D02*
X172451190Y-99852380D01*
X172546428Y-99804761D01*
X172594047Y-99757142D01*
X172689285Y-99614285D01*
X172736904Y-99423809D01*
X172736904Y-99042857D01*
X172689285Y-98947619D01*
X172641666Y-98900000D01*
X172546428Y-98852380D01*
X172355952Y-98852380D01*
X172260714Y-98900000D01*
X172213095Y-98947619D01*
X172165476Y-99042857D01*
X172165476Y-99280952D01*
X172213095Y-99376190D01*
X172260714Y-99423809D01*
X172355952Y-99471428D01*
X172546428Y-99471428D01*
X172641666Y-99423809D01*
X172689285Y-99376190D01*
X172736904Y-99280952D01*
X194632142Y-99852380D02*
X194298809Y-99376190D01*
X194060714Y-99852380D02*
X194060714Y-98852380D01*
X194441666Y-98852380D01*
X194536904Y-98900000D01*
X194584523Y-98947619D01*
X194632142Y-99042857D01*
X194632142Y-99185714D01*
X194584523Y-99280952D01*
X194536904Y-99328571D01*
X194441666Y-99376190D01*
X194060714Y-99376190D01*
X195584523Y-99852380D02*
X195013095Y-99852380D01*
X195298809Y-99852380D02*
X195298809Y-98852380D01*
X195203571Y-98995238D01*
X195108333Y-99090476D01*
X195013095Y-99138095D01*
X196155952Y-99280952D02*
X196060714Y-99233333D01*
X196013095Y-99185714D01*
X195965476Y-99090476D01*
X195965476Y-99042857D01*
X196013095Y-98947619D01*
X196060714Y-98900000D01*
X196155952Y-98852380D01*
X196346428Y-98852380D01*
X196441666Y-98900000D01*
X196489285Y-98947619D01*
X196536904Y-99042857D01*
X196536904Y-99090476D01*
X196489285Y-99185714D01*
X196441666Y-99233333D01*
X196346428Y-99280952D01*
X196155952Y-99280952D01*
X196060714Y-99328571D01*
X196013095Y-99376190D01*
X195965476Y-99471428D01*
X195965476Y-99661904D01*
X196013095Y-99757142D01*
X196060714Y-99804761D01*
X196155952Y-99852380D01*
X196346428Y-99852380D01*
X196441666Y-99804761D01*
X196489285Y-99757142D01*
X196536904Y-99661904D01*
X196536904Y-99471428D01*
X196489285Y-99376190D01*
X196441666Y-99328571D01*
X196346428Y-99280952D01*
X187932142Y-99852380D02*
X187598809Y-99376190D01*
X187360714Y-99852380D02*
X187360714Y-98852380D01*
X187741666Y-98852380D01*
X187836904Y-98900000D01*
X187884523Y-98947619D01*
X187932142Y-99042857D01*
X187932142Y-99185714D01*
X187884523Y-99280952D01*
X187836904Y-99328571D01*
X187741666Y-99376190D01*
X187360714Y-99376190D01*
X188884523Y-99852380D02*
X188313095Y-99852380D01*
X188598809Y-99852380D02*
X188598809Y-98852380D01*
X188503571Y-98995238D01*
X188408333Y-99090476D01*
X188313095Y-99138095D01*
X189217857Y-98852380D02*
X189884523Y-98852380D01*
X189455952Y-99852380D01*
X177457142Y-99852380D02*
X177123809Y-99376190D01*
X176885714Y-99852380D02*
X176885714Y-98852380D01*
X177266666Y-98852380D01*
X177361904Y-98900000D01*
X177409523Y-98947619D01*
X177457142Y-99042857D01*
X177457142Y-99185714D01*
X177409523Y-99280952D01*
X177361904Y-99328571D01*
X177266666Y-99376190D01*
X176885714Y-99376190D01*
X178409523Y-99852380D02*
X177838095Y-99852380D01*
X178123809Y-99852380D02*
X178123809Y-98852380D01*
X178028571Y-98995238D01*
X177933333Y-99090476D01*
X177838095Y-99138095D01*
X179266666Y-98852380D02*
X179076190Y-98852380D01*
X178980952Y-98900000D01*
X178933333Y-98947619D01*
X178838095Y-99090476D01*
X178790476Y-99280952D01*
X178790476Y-99661904D01*
X178838095Y-99757142D01*
X178885714Y-99804761D01*
X178980952Y-99852380D01*
X179171428Y-99852380D01*
X179266666Y-99804761D01*
X179314285Y-99757142D01*
X179361904Y-99661904D01*
X179361904Y-99423809D01*
X179314285Y-99328571D01*
X179266666Y-99280952D01*
X179171428Y-99233333D01*
X178980952Y-99233333D01*
X178885714Y-99280952D01*
X178838095Y-99328571D01*
X178790476Y-99423809D01*
X170832142Y-101752380D02*
X170498809Y-101276190D01*
X170260714Y-101752380D02*
X170260714Y-100752380D01*
X170641666Y-100752380D01*
X170736904Y-100800000D01*
X170784523Y-100847619D01*
X170832142Y-100942857D01*
X170832142Y-101085714D01*
X170784523Y-101180952D01*
X170736904Y-101228571D01*
X170641666Y-101276190D01*
X170260714Y-101276190D01*
X171784523Y-101752380D02*
X171213095Y-101752380D01*
X171498809Y-101752380D02*
X171498809Y-100752380D01*
X171403571Y-100895238D01*
X171308333Y-100990476D01*
X171213095Y-101038095D01*
X172689285Y-100752380D02*
X172213095Y-100752380D01*
X172165476Y-101228571D01*
X172213095Y-101180952D01*
X172308333Y-101133333D01*
X172546428Y-101133333D01*
X172641666Y-101180952D01*
X172689285Y-101228571D01*
X172736904Y-101323809D01*
X172736904Y-101561904D01*
X172689285Y-101657142D01*
X172641666Y-101704761D01*
X172546428Y-101752380D01*
X172308333Y-101752380D01*
X172213095Y-101704761D01*
X172165476Y-101657142D01*
X194632142Y-101752380D02*
X194298809Y-101276190D01*
X194060714Y-101752380D02*
X194060714Y-100752380D01*
X194441666Y-100752380D01*
X194536904Y-100800000D01*
X194584523Y-100847619D01*
X194632142Y-100942857D01*
X194632142Y-101085714D01*
X194584523Y-101180952D01*
X194536904Y-101228571D01*
X194441666Y-101276190D01*
X194060714Y-101276190D01*
X195584523Y-101752380D02*
X195013095Y-101752380D01*
X195298809Y-101752380D02*
X195298809Y-100752380D01*
X195203571Y-100895238D01*
X195108333Y-100990476D01*
X195013095Y-101038095D01*
X196441666Y-101085714D02*
X196441666Y-101752380D01*
X196203571Y-100704761D02*
X195965476Y-101419047D01*
X196584523Y-101419047D01*
X187932142Y-101752380D02*
X187598809Y-101276190D01*
X187360714Y-101752380D02*
X187360714Y-100752380D01*
X187741666Y-100752380D01*
X187836904Y-100800000D01*
X187884523Y-100847619D01*
X187932142Y-100942857D01*
X187932142Y-101085714D01*
X187884523Y-101180952D01*
X187836904Y-101228571D01*
X187741666Y-101276190D01*
X187360714Y-101276190D01*
X188884523Y-101752380D02*
X188313095Y-101752380D01*
X188598809Y-101752380D02*
X188598809Y-100752380D01*
X188503571Y-100895238D01*
X188408333Y-100990476D01*
X188313095Y-101038095D01*
X189217857Y-100752380D02*
X189836904Y-100752380D01*
X189503571Y-101133333D01*
X189646428Y-101133333D01*
X189741666Y-101180952D01*
X189789285Y-101228571D01*
X189836904Y-101323809D01*
X189836904Y-101561904D01*
X189789285Y-101657142D01*
X189741666Y-101704761D01*
X189646428Y-101752380D01*
X189360714Y-101752380D01*
X189265476Y-101704761D01*
X189217857Y-101657142D01*
X177432142Y-101752380D02*
X177098809Y-101276190D01*
X176860714Y-101752380D02*
X176860714Y-100752380D01*
X177241666Y-100752380D01*
X177336904Y-100800000D01*
X177384523Y-100847619D01*
X177432142Y-100942857D01*
X177432142Y-101085714D01*
X177384523Y-101180952D01*
X177336904Y-101228571D01*
X177241666Y-101276190D01*
X176860714Y-101276190D01*
X178384523Y-101752380D02*
X177813095Y-101752380D01*
X178098809Y-101752380D02*
X178098809Y-100752380D01*
X178003571Y-100895238D01*
X177908333Y-100990476D01*
X177813095Y-101038095D01*
X178765476Y-100847619D02*
X178813095Y-100800000D01*
X178908333Y-100752380D01*
X179146428Y-100752380D01*
X179241666Y-100800000D01*
X179289285Y-100847619D01*
X179336904Y-100942857D01*
X179336904Y-101038095D01*
X179289285Y-101180952D01*
X178717857Y-101752380D01*
X179336904Y-101752380D01*
X170857142Y-107127380D02*
X170523809Y-106651190D01*
X170285714Y-107127380D02*
X170285714Y-106127380D01*
X170666666Y-106127380D01*
X170761904Y-106175000D01*
X170809523Y-106222619D01*
X170857142Y-106317857D01*
X170857142Y-106460714D01*
X170809523Y-106555952D01*
X170761904Y-106603571D01*
X170666666Y-106651190D01*
X170285714Y-106651190D01*
X171809523Y-107127380D02*
X171238095Y-107127380D01*
X171523809Y-107127380D02*
X171523809Y-106127380D01*
X171428571Y-106270238D01*
X171333333Y-106365476D01*
X171238095Y-106413095D01*
X172761904Y-107127380D02*
X172190476Y-107127380D01*
X172476190Y-107127380D02*
X172476190Y-106127380D01*
X172380952Y-106270238D01*
X172285714Y-106365476D01*
X172190476Y-106413095D01*
X194757142Y-107152380D02*
X194423809Y-106676190D01*
X194185714Y-107152380D02*
X194185714Y-106152380D01*
X194566666Y-106152380D01*
X194661904Y-106200000D01*
X194709523Y-106247619D01*
X194757142Y-106342857D01*
X194757142Y-106485714D01*
X194709523Y-106580952D01*
X194661904Y-106628571D01*
X194566666Y-106676190D01*
X194185714Y-106676190D01*
X195709523Y-107152380D02*
X195138095Y-107152380D01*
X195423809Y-107152380D02*
X195423809Y-106152380D01*
X195328571Y-106295238D01*
X195233333Y-106390476D01*
X195138095Y-106438095D01*
X196328571Y-106152380D02*
X196423809Y-106152380D01*
X196519047Y-106200000D01*
X196566666Y-106247619D01*
X196614285Y-106342857D01*
X196661904Y-106533333D01*
X196661904Y-106771428D01*
X196614285Y-106961904D01*
X196566666Y-107057142D01*
X196519047Y-107104761D01*
X196423809Y-107152380D01*
X196328571Y-107152380D01*
X196233333Y-107104761D01*
X196185714Y-107057142D01*
X196138095Y-106961904D01*
X196090476Y-106771428D01*
X196090476Y-106533333D01*
X196138095Y-106342857D01*
X196185714Y-106247619D01*
X196233333Y-106200000D01*
X196328571Y-106152380D01*
X188533333Y-107152380D02*
X188200000Y-106676190D01*
X187961904Y-107152380D02*
X187961904Y-106152380D01*
X188342857Y-106152380D01*
X188438095Y-106200000D01*
X188485714Y-106247619D01*
X188533333Y-106342857D01*
X188533333Y-106485714D01*
X188485714Y-106580952D01*
X188438095Y-106628571D01*
X188342857Y-106676190D01*
X187961904Y-106676190D01*
X189009523Y-107152380D02*
X189200000Y-107152380D01*
X189295238Y-107104761D01*
X189342857Y-107057142D01*
X189438095Y-106914285D01*
X189485714Y-106723809D01*
X189485714Y-106342857D01*
X189438095Y-106247619D01*
X189390476Y-106200000D01*
X189295238Y-106152380D01*
X189104761Y-106152380D01*
X189009523Y-106200000D01*
X188961904Y-106247619D01*
X188914285Y-106342857D01*
X188914285Y-106580952D01*
X188961904Y-106676190D01*
X189009523Y-106723809D01*
X189104761Y-106771428D01*
X189295238Y-106771428D01*
X189390476Y-106723809D01*
X189438095Y-106676190D01*
X189485714Y-106580952D01*
X178533333Y-105152380D02*
X178200000Y-104676190D01*
X177961904Y-105152380D02*
X177961904Y-104152380D01*
X178342857Y-104152380D01*
X178438095Y-104200000D01*
X178485714Y-104247619D01*
X178533333Y-104342857D01*
X178533333Y-104485714D01*
X178485714Y-104580952D01*
X178438095Y-104628571D01*
X178342857Y-104676190D01*
X177961904Y-104676190D01*
X179104761Y-104580952D02*
X179009523Y-104533333D01*
X178961904Y-104485714D01*
X178914285Y-104390476D01*
X178914285Y-104342857D01*
X178961904Y-104247619D01*
X179009523Y-104200000D01*
X179104761Y-104152380D01*
X179295238Y-104152380D01*
X179390476Y-104200000D01*
X179438095Y-104247619D01*
X179485714Y-104342857D01*
X179485714Y-104390476D01*
X179438095Y-104485714D01*
X179390476Y-104533333D01*
X179295238Y-104580952D01*
X179104761Y-104580952D01*
X179009523Y-104628571D01*
X178961904Y-104676190D01*
X178914285Y-104771428D01*
X178914285Y-104961904D01*
X178961904Y-105057142D01*
X179009523Y-105104761D01*
X179104761Y-105152380D01*
X179295238Y-105152380D01*
X179390476Y-105104761D01*
X179438095Y-105057142D01*
X179485714Y-104961904D01*
X179485714Y-104771428D01*
X179438095Y-104676190D01*
X179390476Y-104628571D01*
X179295238Y-104580952D01*
X172833333Y-111482380D02*
X172500000Y-111006190D01*
X172261904Y-111482380D02*
X172261904Y-110482380D01*
X172642857Y-110482380D01*
X172738095Y-110530000D01*
X172785714Y-110577619D01*
X172833333Y-110672857D01*
X172833333Y-110815714D01*
X172785714Y-110910952D01*
X172738095Y-110958571D01*
X172642857Y-111006190D01*
X172261904Y-111006190D01*
X173166666Y-110482380D02*
X173833333Y-110482380D01*
X173404761Y-111482380D01*
X176133333Y-133352380D02*
X175800000Y-132876190D01*
X175561904Y-133352380D02*
X175561904Y-132352380D01*
X175942857Y-132352380D01*
X176038095Y-132400000D01*
X176085714Y-132447619D01*
X176133333Y-132542857D01*
X176133333Y-132685714D01*
X176085714Y-132780952D01*
X176038095Y-132828571D01*
X175942857Y-132876190D01*
X175561904Y-132876190D01*
X176990476Y-132352380D02*
X176800000Y-132352380D01*
X176704761Y-132400000D01*
X176657142Y-132447619D01*
X176561904Y-132590476D01*
X176514285Y-132780952D01*
X176514285Y-133161904D01*
X176561904Y-133257142D01*
X176609523Y-133304761D01*
X176704761Y-133352380D01*
X176895238Y-133352380D01*
X176990476Y-133304761D01*
X177038095Y-133257142D01*
X177085714Y-133161904D01*
X177085714Y-132923809D01*
X177038095Y-132828571D01*
X176990476Y-132780952D01*
X176895238Y-132733333D01*
X176704761Y-132733333D01*
X176609523Y-132780952D01*
X176561904Y-132828571D01*
X176514285Y-132923809D01*
X170933333Y-132252380D02*
X170600000Y-131776190D01*
X170361904Y-132252380D02*
X170361904Y-131252380D01*
X170742857Y-131252380D01*
X170838095Y-131300000D01*
X170885714Y-131347619D01*
X170933333Y-131442857D01*
X170933333Y-131585714D01*
X170885714Y-131680952D01*
X170838095Y-131728571D01*
X170742857Y-131776190D01*
X170361904Y-131776190D01*
X171838095Y-131252380D02*
X171361904Y-131252380D01*
X171314285Y-131728571D01*
X171361904Y-131680952D01*
X171457142Y-131633333D01*
X171695238Y-131633333D01*
X171790476Y-131680952D01*
X171838095Y-131728571D01*
X171885714Y-131823809D01*
X171885714Y-132061904D01*
X171838095Y-132157142D01*
X171790476Y-132204761D01*
X171695238Y-132252380D01*
X171457142Y-132252380D01*
X171361904Y-132204761D01*
X171314285Y-132157142D01*
X170933333Y-127852380D02*
X170600000Y-127376190D01*
X170361904Y-127852380D02*
X170361904Y-126852380D01*
X170742857Y-126852380D01*
X170838095Y-126900000D01*
X170885714Y-126947619D01*
X170933333Y-127042857D01*
X170933333Y-127185714D01*
X170885714Y-127280952D01*
X170838095Y-127328571D01*
X170742857Y-127376190D01*
X170361904Y-127376190D01*
X171790476Y-127185714D02*
X171790476Y-127852380D01*
X171552380Y-126804761D02*
X171314285Y-127519047D01*
X171933333Y-127519047D01*
X177633333Y-125352380D02*
X177300000Y-124876190D01*
X177061904Y-125352380D02*
X177061904Y-124352380D01*
X177442857Y-124352380D01*
X177538095Y-124400000D01*
X177585714Y-124447619D01*
X177633333Y-124542857D01*
X177633333Y-124685714D01*
X177585714Y-124780952D01*
X177538095Y-124828571D01*
X177442857Y-124876190D01*
X177061904Y-124876190D01*
X177966666Y-124352380D02*
X178585714Y-124352380D01*
X178252380Y-124733333D01*
X178395238Y-124733333D01*
X178490476Y-124780952D01*
X178538095Y-124828571D01*
X178585714Y-124923809D01*
X178585714Y-125161904D01*
X178538095Y-125257142D01*
X178490476Y-125304761D01*
X178395238Y-125352380D01*
X178109523Y-125352380D01*
X178014285Y-125304761D01*
X177966666Y-125257142D01*
X170933333Y-125652380D02*
X170600000Y-125176190D01*
X170361904Y-125652380D02*
X170361904Y-124652380D01*
X170742857Y-124652380D01*
X170838095Y-124700000D01*
X170885714Y-124747619D01*
X170933333Y-124842857D01*
X170933333Y-124985714D01*
X170885714Y-125080952D01*
X170838095Y-125128571D01*
X170742857Y-125176190D01*
X170361904Y-125176190D01*
X171314285Y-124747619D02*
X171361904Y-124700000D01*
X171457142Y-124652380D01*
X171695238Y-124652380D01*
X171790476Y-124700000D01*
X171838095Y-124747619D01*
X171885714Y-124842857D01*
X171885714Y-124938095D01*
X171838095Y-125080952D01*
X171266666Y-125652380D01*
X171885714Y-125652380D01*
X159533333Y-75252380D02*
X159200000Y-74776190D01*
X158961904Y-75252380D02*
X158961904Y-74252380D01*
X159342857Y-74252380D01*
X159438095Y-74300000D01*
X159485714Y-74347619D01*
X159533333Y-74442857D01*
X159533333Y-74585714D01*
X159485714Y-74680952D01*
X159438095Y-74728571D01*
X159342857Y-74776190D01*
X158961904Y-74776190D01*
X160485714Y-75252380D02*
X159914285Y-75252380D01*
X160200000Y-75252380D02*
X160200000Y-74252380D01*
X160104761Y-74395238D01*
X160009523Y-74490476D01*
X159914285Y-74538095D01*
X168354761Y-107247619D02*
X168259523Y-107200000D01*
X168164285Y-107104761D01*
X168021428Y-106961904D01*
X167926190Y-106914285D01*
X167830952Y-106914285D01*
X167878571Y-107152380D02*
X167783333Y-107104761D01*
X167688095Y-107009523D01*
X167640476Y-106819047D01*
X167640476Y-106485714D01*
X167688095Y-106295238D01*
X167783333Y-106200000D01*
X167878571Y-106152380D01*
X168069047Y-106152380D01*
X168164285Y-106200000D01*
X168259523Y-106295238D01*
X168307142Y-106485714D01*
X168307142Y-106819047D01*
X168259523Y-107009523D01*
X168164285Y-107104761D01*
X168069047Y-107152380D01*
X167878571Y-107152380D01*
X169164285Y-106485714D02*
X169164285Y-107152380D01*
X168926190Y-106104761D02*
X168688095Y-106819047D01*
X169307142Y-106819047D01*
X192104761Y-107247619D02*
X192009523Y-107200000D01*
X191914285Y-107104761D01*
X191771428Y-106961904D01*
X191676190Y-106914285D01*
X191580952Y-106914285D01*
X191628571Y-107152380D02*
X191533333Y-107104761D01*
X191438095Y-107009523D01*
X191390476Y-106819047D01*
X191390476Y-106485714D01*
X191438095Y-106295238D01*
X191533333Y-106200000D01*
X191628571Y-106152380D01*
X191819047Y-106152380D01*
X191914285Y-106200000D01*
X192009523Y-106295238D01*
X192057142Y-106485714D01*
X192057142Y-106819047D01*
X192009523Y-107009523D01*
X191914285Y-107104761D01*
X191819047Y-107152380D01*
X191628571Y-107152380D01*
X192390476Y-106152380D02*
X193009523Y-106152380D01*
X192676190Y-106533333D01*
X192819047Y-106533333D01*
X192914285Y-106580952D01*
X192961904Y-106628571D01*
X193009523Y-106723809D01*
X193009523Y-106961904D01*
X192961904Y-107057142D01*
X192914285Y-107104761D01*
X192819047Y-107152380D01*
X192533333Y-107152380D01*
X192438095Y-107104761D01*
X192390476Y-107057142D01*
X185404761Y-107247619D02*
X185309523Y-107200000D01*
X185214285Y-107104761D01*
X185071428Y-106961904D01*
X184976190Y-106914285D01*
X184880952Y-106914285D01*
X184928571Y-107152380D02*
X184833333Y-107104761D01*
X184738095Y-107009523D01*
X184690476Y-106819047D01*
X184690476Y-106485714D01*
X184738095Y-106295238D01*
X184833333Y-106200000D01*
X184928571Y-106152380D01*
X185119047Y-106152380D01*
X185214285Y-106200000D01*
X185309523Y-106295238D01*
X185357142Y-106485714D01*
X185357142Y-106819047D01*
X185309523Y-107009523D01*
X185214285Y-107104761D01*
X185119047Y-107152380D01*
X184928571Y-107152380D01*
X185738095Y-106247619D02*
X185785714Y-106200000D01*
X185880952Y-106152380D01*
X186119047Y-106152380D01*
X186214285Y-106200000D01*
X186261904Y-106247619D01*
X186309523Y-106342857D01*
X186309523Y-106438095D01*
X186261904Y-106580952D01*
X185690476Y-107152380D01*
X186309523Y-107152380D01*
X174904761Y-107247619D02*
X174809523Y-107200000D01*
X174714285Y-107104761D01*
X174571428Y-106961904D01*
X174476190Y-106914285D01*
X174380952Y-106914285D01*
X174428571Y-107152380D02*
X174333333Y-107104761D01*
X174238095Y-107009523D01*
X174190476Y-106819047D01*
X174190476Y-106485714D01*
X174238095Y-106295238D01*
X174333333Y-106200000D01*
X174428571Y-106152380D01*
X174619047Y-106152380D01*
X174714285Y-106200000D01*
X174809523Y-106295238D01*
X174857142Y-106485714D01*
X174857142Y-106819047D01*
X174809523Y-107009523D01*
X174714285Y-107104761D01*
X174619047Y-107152380D01*
X174428571Y-107152380D01*
X175809523Y-107152380D02*
X175238095Y-107152380D01*
X175523809Y-107152380D02*
X175523809Y-106152380D01*
X175428571Y-106295238D01*
X175333333Y-106390476D01*
X175238095Y-106438095D01*
X187152380Y-148533333D02*
X187866666Y-148533333D01*
X188009523Y-148580952D01*
X188104761Y-148676190D01*
X188152380Y-148819047D01*
X188152380Y-148914285D01*
X187152380Y-148152380D02*
X187152380Y-147533333D01*
X187533333Y-147866666D01*
X187533333Y-147723809D01*
X187580952Y-147628571D01*
X187628571Y-147580952D01*
X187723809Y-147533333D01*
X187961904Y-147533333D01*
X188057142Y-147580952D01*
X188104761Y-147628571D01*
X188152380Y-147723809D01*
X188152380Y-148009523D01*
X188104761Y-148104761D01*
X188057142Y-148152380D01*
X188066666Y-109852380D02*
X188066666Y-110566666D01*
X188019047Y-110709523D01*
X187923809Y-110804761D01*
X187780952Y-110852380D01*
X187685714Y-110852380D01*
X188495238Y-109947619D02*
X188542857Y-109900000D01*
X188638095Y-109852380D01*
X188876190Y-109852380D01*
X188971428Y-109900000D01*
X189019047Y-109947619D01*
X189066666Y-110042857D01*
X189066666Y-110138095D01*
X189019047Y-110280952D01*
X188447619Y-110852380D01*
X189066666Y-110852380D01*
D10*
X154916666Y-142252380D02*
X154916666Y-142966666D01*
X154869047Y-143109523D01*
X154773809Y-143204761D01*
X154630952Y-143252380D01*
X154535714Y-143252380D01*
X155916666Y-143252380D02*
X155345238Y-143252380D01*
X155630952Y-143252380D02*
X155630952Y-142252380D01*
X155535714Y-142395238D01*
X155440476Y-142490476D01*
X155345238Y-142538095D01*
D11*
X146111904Y-75582380D02*
X146111904Y-74582380D01*
X146350000Y-74582380D01*
X146492857Y-74630000D01*
X146588095Y-74725238D01*
X146635714Y-74820476D01*
X146683333Y-75010952D01*
X146683333Y-75153809D01*
X146635714Y-75344285D01*
X146588095Y-75439523D01*
X146492857Y-75534761D01*
X146350000Y-75582380D01*
X146111904Y-75582380D01*
X147588095Y-74582380D02*
X147111904Y-74582380D01*
X147064285Y-75058571D01*
X147111904Y-75010952D01*
X147207142Y-74963333D01*
X147445238Y-74963333D01*
X147540476Y-75010952D01*
X147588095Y-75058571D01*
X147635714Y-75153809D01*
X147635714Y-75391904D01*
X147588095Y-75487142D01*
X147540476Y-75534761D01*
X147445238Y-75582380D01*
X147207142Y-75582380D01*
X147111904Y-75534761D01*
X147064285Y-75487142D01*
X146111904Y-72732380D02*
X146111904Y-71732380D01*
X146350000Y-71732380D01*
X146492857Y-71780000D01*
X146588095Y-71875238D01*
X146635714Y-71970476D01*
X146683333Y-72160952D01*
X146683333Y-72303809D01*
X146635714Y-72494285D01*
X146588095Y-72589523D01*
X146492857Y-72684761D01*
X146350000Y-72732380D01*
X146111904Y-72732380D01*
X147540476Y-72065714D02*
X147540476Y-72732380D01*
X147302380Y-71684761D02*
X147064285Y-72399047D01*
X147683333Y-72399047D01*
X160652380Y-126538095D02*
X159652380Y-126538095D01*
X159652380Y-126300000D01*
X159700000Y-126157142D01*
X159795238Y-126061904D01*
X159890476Y-126014285D01*
X160080952Y-125966666D01*
X160223809Y-125966666D01*
X160414285Y-126014285D01*
X160509523Y-126061904D01*
X160604761Y-126157142D01*
X160652380Y-126300000D01*
X160652380Y-126538095D01*
X159652380Y-125633333D02*
X159652380Y-125014285D01*
X160033333Y-125347619D01*
X160033333Y-125204761D01*
X160080952Y-125109523D01*
X160128571Y-125061904D01*
X160223809Y-125014285D01*
X160461904Y-125014285D01*
X160557142Y-125061904D01*
X160604761Y-125109523D01*
X160652380Y-125204761D01*
X160652380Y-125490476D01*
X160604761Y-125585714D01*
X160557142Y-125633333D01*
X176961904Y-144152380D02*
X176961904Y-143152380D01*
X177200000Y-143152380D01*
X177342857Y-143200000D01*
X177438095Y-143295238D01*
X177485714Y-143390476D01*
X177533333Y-143580952D01*
X177533333Y-143723809D01*
X177485714Y-143914285D01*
X177438095Y-144009523D01*
X177342857Y-144104761D01*
X177200000Y-144152380D01*
X176961904Y-144152380D01*
X177914285Y-143247619D02*
X177961904Y-143200000D01*
X178057142Y-143152380D01*
X178295238Y-143152380D01*
X178390476Y-143200000D01*
X178438095Y-143247619D01*
X178485714Y-143342857D01*
X178485714Y-143438095D01*
X178438095Y-143580952D01*
X177866666Y-144152380D01*
X178485714Y-144152380D01*
X174161904Y-144152380D02*
X174161904Y-143152380D01*
X174400000Y-143152380D01*
X174542857Y-143200000D01*
X174638095Y-143295238D01*
X174685714Y-143390476D01*
X174733333Y-143580952D01*
X174733333Y-143723809D01*
X174685714Y-143914285D01*
X174638095Y-144009523D01*
X174542857Y-144104761D01*
X174400000Y-144152380D01*
X174161904Y-144152380D01*
X175685714Y-144152380D02*
X175114285Y-144152380D01*
X175400000Y-144152380D02*
X175400000Y-143152380D01*
X175304761Y-143295238D01*
X175209523Y-143390476D01*
X175114285Y-143438095D01*
X153157142Y-113957142D02*
X153109523Y-114004761D01*
X152966666Y-114052380D01*
X152871428Y-114052380D01*
X152728571Y-114004761D01*
X152633333Y-113909523D01*
X152585714Y-113814285D01*
X152538095Y-113623809D01*
X152538095Y-113480952D01*
X152585714Y-113290476D01*
X152633333Y-113195238D01*
X152728571Y-113100000D01*
X152871428Y-113052380D01*
X152966666Y-113052380D01*
X153109523Y-113100000D01*
X153157142Y-113147619D01*
X154109523Y-114052380D02*
X153538095Y-114052380D01*
X153823809Y-114052380D02*
X153823809Y-113052380D01*
X153728571Y-113195238D01*
X153633333Y-113290476D01*
X153538095Y-113338095D01*
X154966666Y-113385714D02*
X154966666Y-114052380D01*
X154728571Y-113004761D02*
X154490476Y-113719047D01*
X155109523Y-113719047D01*
X153157142Y-103357142D02*
X153109523Y-103404761D01*
X152966666Y-103452380D01*
X152871428Y-103452380D01*
X152728571Y-103404761D01*
X152633333Y-103309523D01*
X152585714Y-103214285D01*
X152538095Y-103023809D01*
X152538095Y-102880952D01*
X152585714Y-102690476D01*
X152633333Y-102595238D01*
X152728571Y-102500000D01*
X152871428Y-102452380D01*
X152966666Y-102452380D01*
X153109523Y-102500000D01*
X153157142Y-102547619D01*
X154109523Y-103452380D02*
X153538095Y-103452380D01*
X153823809Y-103452380D02*
X153823809Y-102452380D01*
X153728571Y-102595238D01*
X153633333Y-102690476D01*
X153538095Y-102738095D01*
X154442857Y-102452380D02*
X155061904Y-102452380D01*
X154728571Y-102833333D01*
X154871428Y-102833333D01*
X154966666Y-102880952D01*
X155014285Y-102928571D01*
X155061904Y-103023809D01*
X155061904Y-103261904D01*
X155014285Y-103357142D01*
X154966666Y-103404761D01*
X154871428Y-103452380D01*
X154585714Y-103452380D01*
X154490476Y-103404761D01*
X154442857Y-103357142D01*
X166157142Y-110357142D02*
X166109523Y-110404761D01*
X165966666Y-110452380D01*
X165871428Y-110452380D01*
X165728571Y-110404761D01*
X165633333Y-110309523D01*
X165585714Y-110214285D01*
X165538095Y-110023809D01*
X165538095Y-109880952D01*
X165585714Y-109690476D01*
X165633333Y-109595238D01*
X165728571Y-109500000D01*
X165871428Y-109452380D01*
X165966666Y-109452380D01*
X166109523Y-109500000D01*
X166157142Y-109547619D01*
X167109523Y-110452380D02*
X166538095Y-110452380D01*
X166823809Y-110452380D02*
X166823809Y-109452380D01*
X166728571Y-109595238D01*
X166633333Y-109690476D01*
X166538095Y-109738095D01*
X167490476Y-109547619D02*
X167538095Y-109500000D01*
X167633333Y-109452380D01*
X167871428Y-109452380D01*
X167966666Y-109500000D01*
X168014285Y-109547619D01*
X168061904Y-109642857D01*
X168061904Y-109738095D01*
X168014285Y-109880952D01*
X167442857Y-110452380D01*
X168061904Y-110452380D01*
X172232142Y-122857142D02*
X172184523Y-122904761D01*
X172041666Y-122952380D01*
X171946428Y-122952380D01*
X171803571Y-122904761D01*
X171708333Y-122809523D01*
X171660714Y-122714285D01*
X171613095Y-122523809D01*
X171613095Y-122380952D01*
X171660714Y-122190476D01*
X171708333Y-122095238D01*
X171803571Y-122000000D01*
X171946428Y-121952380D01*
X172041666Y-121952380D01*
X172184523Y-122000000D01*
X172232142Y-122047619D01*
X173184523Y-122952380D02*
X172613095Y-122952380D01*
X172898809Y-122952380D02*
X172898809Y-121952380D01*
X172803571Y-122095238D01*
X172708333Y-122190476D01*
X172613095Y-122238095D01*
X174136904Y-122952380D02*
X173565476Y-122952380D01*
X173851190Y-122952380D02*
X173851190Y-121952380D01*
X173755952Y-122095238D01*
X173660714Y-122190476D01*
X173565476Y-122238095D01*
X157957142Y-132357142D02*
X157909523Y-132404761D01*
X157766666Y-132452380D01*
X157671428Y-132452380D01*
X157528571Y-132404761D01*
X157433333Y-132309523D01*
X157385714Y-132214285D01*
X157338095Y-132023809D01*
X157338095Y-131880952D01*
X157385714Y-131690476D01*
X157433333Y-131595238D01*
X157528571Y-131500000D01*
X157671428Y-131452380D01*
X157766666Y-131452380D01*
X157909523Y-131500000D01*
X157957142Y-131547619D01*
X158909523Y-132452380D02*
X158338095Y-132452380D01*
X158623809Y-132452380D02*
X158623809Y-131452380D01*
X158528571Y-131595238D01*
X158433333Y-131690476D01*
X158338095Y-131738095D01*
X159528571Y-131452380D02*
X159623809Y-131452380D01*
X159719047Y-131500000D01*
X159766666Y-131547619D01*
X159814285Y-131642857D01*
X159861904Y-131833333D01*
X159861904Y-132071428D01*
X159814285Y-132261904D01*
X159766666Y-132357142D01*
X159719047Y-132404761D01*
X159623809Y-132452380D01*
X159528571Y-132452380D01*
X159433333Y-132404761D01*
X159385714Y-132357142D01*
X159338095Y-132261904D01*
X159290476Y-132071428D01*
X159290476Y-131833333D01*
X159338095Y-131642857D01*
X159385714Y-131547619D01*
X159433333Y-131500000D01*
X159528571Y-131452380D01*
X157333333Y-140257142D02*
X157285714Y-140304761D01*
X157142857Y-140352380D01*
X157047619Y-140352380D01*
X156904761Y-140304761D01*
X156809523Y-140209523D01*
X156761904Y-140114285D01*
X156714285Y-139923809D01*
X156714285Y-139780952D01*
X156761904Y-139590476D01*
X156809523Y-139495238D01*
X156904761Y-139400000D01*
X157047619Y-139352380D01*
X157142857Y-139352380D01*
X157285714Y-139400000D01*
X157333333Y-139447619D01*
X157809523Y-140352380D02*
X158000000Y-140352380D01*
X158095238Y-140304761D01*
X158142857Y-140257142D01*
X158238095Y-140114285D01*
X158285714Y-139923809D01*
X158285714Y-139542857D01*
X158238095Y-139447619D01*
X158190476Y-139400000D01*
X158095238Y-139352380D01*
X157904761Y-139352380D01*
X157809523Y-139400000D01*
X157761904Y-139447619D01*
X157714285Y-139542857D01*
X157714285Y-139780952D01*
X157761904Y-139876190D01*
X157809523Y-139923809D01*
X157904761Y-139971428D01*
X158095238Y-139971428D01*
X158190476Y-139923809D01*
X158238095Y-139876190D01*
X158285714Y-139780952D01*
X197333333Y-119157142D02*
X197285714Y-119204761D01*
X197142857Y-119252380D01*
X197047619Y-119252380D01*
X196904761Y-119204761D01*
X196809523Y-119109523D01*
X196761904Y-119014285D01*
X196714285Y-118823809D01*
X196714285Y-118680952D01*
X196761904Y-118490476D01*
X196809523Y-118395238D01*
X196904761Y-118300000D01*
X197047619Y-118252380D01*
X197142857Y-118252380D01*
X197285714Y-118300000D01*
X197333333Y-118347619D01*
X197904761Y-118680952D02*
X197809523Y-118633333D01*
X197761904Y-118585714D01*
X197714285Y-118490476D01*
X197714285Y-118442857D01*
X197761904Y-118347619D01*
X197809523Y-118300000D01*
X197904761Y-118252380D01*
X198095238Y-118252380D01*
X198190476Y-118300000D01*
X198238095Y-118347619D01*
X198285714Y-118442857D01*
X198285714Y-118490476D01*
X198238095Y-118585714D01*
X198190476Y-118633333D01*
X198095238Y-118680952D01*
X197904761Y-118680952D01*
X197809523Y-118728571D01*
X197761904Y-118776190D01*
X197714285Y-118871428D01*
X197714285Y-119061904D01*
X197761904Y-119157142D01*
X197809523Y-119204761D01*
X197904761Y-119252380D01*
X198095238Y-119252380D01*
X198190476Y-119204761D01*
X198238095Y-119157142D01*
X198285714Y-119061904D01*
X198285714Y-118871428D01*
X198238095Y-118776190D01*
X198190476Y-118728571D01*
X198095238Y-118680952D01*
X172533333Y-142157142D02*
X172485714Y-142204761D01*
X172342857Y-142252380D01*
X172247619Y-142252380D01*
X172104761Y-142204761D01*
X172009523Y-142109523D01*
X171961904Y-142014285D01*
X171914285Y-141823809D01*
X171914285Y-141680952D01*
X171961904Y-141490476D01*
X172009523Y-141395238D01*
X172104761Y-141300000D01*
X172247619Y-141252380D01*
X172342857Y-141252380D01*
X172485714Y-141300000D01*
X172533333Y-141347619D01*
X172866666Y-141252380D02*
X173533333Y-141252380D01*
X173104761Y-142252380D01*
X186233333Y-117027142D02*
X186185714Y-117074761D01*
X186042857Y-117122380D01*
X185947619Y-117122380D01*
X185804761Y-117074761D01*
X185709523Y-116979523D01*
X185661904Y-116884285D01*
X185614285Y-116693809D01*
X185614285Y-116550952D01*
X185661904Y-116360476D01*
X185709523Y-116265238D01*
X185804761Y-116170000D01*
X185947619Y-116122380D01*
X186042857Y-116122380D01*
X186185714Y-116170000D01*
X186233333Y-116217619D01*
X187090476Y-116122380D02*
X186900000Y-116122380D01*
X186804761Y-116170000D01*
X186757142Y-116217619D01*
X186661904Y-116360476D01*
X186614285Y-116550952D01*
X186614285Y-116931904D01*
X186661904Y-117027142D01*
X186709523Y-117074761D01*
X186804761Y-117122380D01*
X186995238Y-117122380D01*
X187090476Y-117074761D01*
X187138095Y-117027142D01*
X187185714Y-116931904D01*
X187185714Y-116693809D01*
X187138095Y-116598571D01*
X187090476Y-116550952D01*
X186995238Y-116503333D01*
X186804761Y-116503333D01*
X186709523Y-116550952D01*
X186661904Y-116598571D01*
X186614285Y-116693809D01*
X170333333Y-117187142D02*
X170285714Y-117234761D01*
X170142857Y-117282380D01*
X170047619Y-117282380D01*
X169904761Y-117234761D01*
X169809523Y-117139523D01*
X169761904Y-117044285D01*
X169714285Y-116853809D01*
X169714285Y-116710952D01*
X169761904Y-116520476D01*
X169809523Y-116425238D01*
X169904761Y-116330000D01*
X170047619Y-116282380D01*
X170142857Y-116282380D01*
X170285714Y-116330000D01*
X170333333Y-116377619D01*
X171238095Y-116282380D02*
X170761904Y-116282380D01*
X170714285Y-116758571D01*
X170761904Y-116710952D01*
X170857142Y-116663333D01*
X171095238Y-116663333D01*
X171190476Y-116710952D01*
X171238095Y-116758571D01*
X171285714Y-116853809D01*
X171285714Y-117091904D01*
X171238095Y-117187142D01*
X171190476Y-117234761D01*
X171095238Y-117282380D01*
X170857142Y-117282380D01*
X170761904Y-117234761D01*
X170714285Y-117187142D01*
X170333333Y-114187142D02*
X170285714Y-114234761D01*
X170142857Y-114282380D01*
X170047619Y-114282380D01*
X169904761Y-114234761D01*
X169809523Y-114139523D01*
X169761904Y-114044285D01*
X169714285Y-113853809D01*
X169714285Y-113710952D01*
X169761904Y-113520476D01*
X169809523Y-113425238D01*
X169904761Y-113330000D01*
X170047619Y-113282380D01*
X170142857Y-113282380D01*
X170285714Y-113330000D01*
X170333333Y-113377619D01*
X171190476Y-113615714D02*
X171190476Y-114282380D01*
X170952380Y-113234761D02*
X170714285Y-113949047D01*
X171333333Y-113949047D01*
X170433333Y-134457142D02*
X170385714Y-134504761D01*
X170242857Y-134552380D01*
X170147619Y-134552380D01*
X170004761Y-134504761D01*
X169909523Y-134409523D01*
X169861904Y-134314285D01*
X169814285Y-134123809D01*
X169814285Y-133980952D01*
X169861904Y-133790476D01*
X169909523Y-133695238D01*
X170004761Y-133600000D01*
X170147619Y-133552380D01*
X170242857Y-133552380D01*
X170385714Y-133600000D01*
X170433333Y-133647619D01*
X170766666Y-133552380D02*
X171385714Y-133552380D01*
X171052380Y-133933333D01*
X171195238Y-133933333D01*
X171290476Y-133980952D01*
X171338095Y-134028571D01*
X171385714Y-134123809D01*
X171385714Y-134361904D01*
X171338095Y-134457142D01*
X171290476Y-134504761D01*
X171195238Y-134552380D01*
X170909523Y-134552380D01*
X170814285Y-134504761D01*
X170766666Y-134457142D01*
X156333333Y-73407142D02*
X156285714Y-73454761D01*
X156142857Y-73502380D01*
X156047619Y-73502380D01*
X155904761Y-73454761D01*
X155809523Y-73359523D01*
X155761904Y-73264285D01*
X155714285Y-73073809D01*
X155714285Y-72930952D01*
X155761904Y-72740476D01*
X155809523Y-72645238D01*
X155904761Y-72550000D01*
X156047619Y-72502380D01*
X156142857Y-72502380D01*
X156285714Y-72550000D01*
X156333333Y-72597619D01*
X156714285Y-72597619D02*
X156761904Y-72550000D01*
X156857142Y-72502380D01*
X157095238Y-72502380D01*
X157190476Y-72550000D01*
X157238095Y-72597619D01*
X157285714Y-72692857D01*
X157285714Y-72788095D01*
X157238095Y-72930952D01*
X156666666Y-73502380D01*
X157285714Y-73502380D01*
X175033333Y-129757142D02*
X174985714Y-129804761D01*
X174842857Y-129852380D01*
X174747619Y-129852380D01*
X174604761Y-129804761D01*
X174509523Y-129709523D01*
X174461904Y-129614285D01*
X174414285Y-129423809D01*
X174414285Y-129280952D01*
X174461904Y-129090476D01*
X174509523Y-128995238D01*
X174604761Y-128900000D01*
X174747619Y-128852380D01*
X174842857Y-128852380D01*
X174985714Y-128900000D01*
X175033333Y-128947619D01*
X175985714Y-129852380D02*
X175414285Y-129852380D01*
X175700000Y-129852380D02*
X175700000Y-128852380D01*
X175604761Y-128995238D01*
X175509523Y-129090476D01*
X175414285Y-129138095D01*
M02*
