M48
; DRILL file {KiCad (5.1.4)-1} date 2020/11/18 17:55:03
; FORMAT={-:-/ absolute / metric / decimal}
; #@! TF.CreationDate,2020-11-18T17:55:03+09:00
; #@! TF.GenerationSoftware,Kicad,Pcbnew,(5.1.4)-1
FMAT,2
METRIC
T1C0.400
T2C0.500
T3C0.800
T4C0.900
T5C1.000
T6C1.100
T7C2.000
T8C3.200
%
G90
G05
T1
X142.45Y-99.1
X142.5Y-76.1
X142.55Y-88.7
X142.75Y-82.4
X145.975Y-70.85
X147.875Y-131.275
X148.05Y-106.65
X148.15Y-117.4
X148.95Y-74.75
X149.4Y-101.8
X149.4Y-109.325
X149.5Y-119.9
X150.7Y-117.35
X150.75Y-106.65
X151.4Y-139.8
X154.0Y-111.0
X154.35Y-76.5
X154.35Y-82.3
X154.35Y-96.15
X154.4Y-88.7
X156.2Y-114.0
X156.75Y-124.1
X158.1Y-118.7
X158.5Y-96.15
X158.6Y-122.5
X158.65Y-88.7
X158.7Y-78.1
X158.7Y-82.3
X159.5Y-117.2
X159.9Y-120.6
X160.4Y-116.4
X160.5Y-139.8
X161.075Y-131.225
X161.3Y-109.1
X161.8Y-120.9
X162.1Y-108.35
X162.35Y-115.15
X162.85Y-107.6
X163.35Y-124.1
X163.4Y-134.1
X163.6Y-106.85
X164.1Y-82.3
X164.6Y-110.0
X164.675Y-105.3
X166.8Y-137.8
X166.9Y-118.75
X167.05Y-115.15
X167.125Y-134.1
X167.7Y-148.35
X167.75Y-111.7
X168.5Y-105.3
X168.6Y-129.55
X168.85Y-132.9
X169.25Y-99.4
X169.45Y-118.9
X169.75Y-127.05
X170.0Y-72.9
X170.275Y-88.6
X170.675Y-122.5
X171.375Y-115.425
X171.6Y-126.3
X171.75Y-137.1
X172.4Y-114.0
X172.4Y-116.4
X172.7Y-140.3
X173.1Y-117.2
X173.3Y-113.2
X174.45Y-145.5
X174.8Y-122.8
X174.9Y-111.0
X175.1Y-105.3
X175.15Y-92.8
X175.85Y-99.4
X176.0Y-124.2
X176.0Y-131.8
X176.2Y-120.9
X176.5Y-114.8
X177.0Y-121.6
X177.8Y-109.5
X177.8Y-122.2
X178.35Y-97.8
X178.4Y-130.25
X178.6Y-109.0
X178.675Y-126.3
X179.3Y-145.9
X179.4Y-108.5
X179.7Y-129.6
X180.2Y-109.0
X180.2Y-121.3
X180.3Y-78.35
X180.7Y-123.4
X180.7Y-127.4
X181.8Y-133.9
X183.4Y-119.4
X184.7Y-113.2
X185.3Y-112.4
X185.525Y-118.1
X185.6Y-105.3
X186.35Y-99.4
X186.55Y-94.85
X187.3Y-118.15
X187.6Y-86.1
X188.7Y-97.8
X190.55Y-107.1
X191.3Y-118.9
X192.25Y-105.3
X193.05Y-99.4
X194.025Y-116.2
X194.55Y-78.2
X194.95Y-94.25
X195.8Y-100.4
X198.75Y-113.55
T2
X161.06Y-52.72
X161.06Y-53.98
X161.81Y-51.69
X161.81Y-55.01
X163.01Y-51.3
X163.01Y-55.4
X164.34Y-51.3
X164.34Y-55.4
X165.68Y-51.3
X165.68Y-55.4
X167.01Y-51.3
X167.01Y-55.4
X168.21Y-51.69
X168.21Y-55.01
X168.96Y-52.72
X168.96Y-53.98
X171.06Y-52.72
X171.06Y-53.98
X171.81Y-51.69
X171.81Y-55.01
X173.01Y-51.3
X173.01Y-55.4
X174.34Y-51.3
X174.34Y-55.4
X175.68Y-51.3
X175.68Y-55.4
X177.01Y-51.3
X177.01Y-55.4
X178.21Y-51.69
X178.21Y-55.01
X178.96Y-52.72
X178.96Y-53.98
T3
X161.8Y-128.0
X165.0Y-125.5
X165.0Y-130.5
X168.1Y-74.75
X170.01Y-74.75
X171.92Y-74.75
T4
X154.0Y-146.7
X156.5Y-146.7
T5
X154.0Y-128.82
X154.0Y-131.36
X154.0Y-133.9
X164.3Y-79.36
X164.3Y-94.6
X166.84Y-79.36
X166.84Y-94.6
X169.38Y-79.36
X169.38Y-94.6
X171.92Y-79.36
X171.92Y-94.6
X174.46Y-79.36
X174.46Y-94.6
X177.0Y-79.36
X177.0Y-94.6
X177.7Y-148.2
X180.24Y-148.2
X182.78Y-148.2
X185.32Y-148.2
X190.58Y-110.4
X193.12Y-110.4
X195.66Y-110.4
X198.2Y-110.4
T6
X142.25Y-104.25
X142.25Y-110.75
X146.75Y-104.25
X146.75Y-110.75
X142.25Y-114.95
X142.25Y-121.45
X146.75Y-114.95
X146.75Y-121.45
T8
X195.0Y-145.0
X145.0Y-145.0
X145.0Y-55.0
X195.0Y-55.0
T7
G00X163.01Y-53.35
M15
G01X167.01Y-53.35
M16
G05
G00X173.01Y-53.35
M15
G01X177.01Y-53.35
M16
G05
T0
M30
